<svg width="24" height="24" viewBox="0 0 24 24" fill="none" xmlns="http://www.w3.org/2000/svg">
<path d="M12 15C11.1667 15 10.4583 14.7083 9.875 14.125C9.29167 13.5417 9 12.8333 9 12C9 11.1667 9.29167 10.4583 9.875 9.875C10.4583 9.29167 11.1667 9 12 9C12.8333 9 13.5417 9.29167 14.125 9.875C14.7083 10.4583 15 11.1667 15 12C15 12.8333 14.7083 13.5417 14.125 14.125C13.5417 14.7083 12.8333 15 12 15ZM3 10C2.71667 10 2.47933 9.904 2.288 9.712C2.096 9.52067 2 9.28333 2 9V5C2 4.71667 2.096 4.479 2.288 4.287C2.47933 4.09567 2.71667 4 3 4C3.28333 4 3.521 4.09567 3.713 4.287C3.90433 4.479 4 4.71667 4 5V6C4.95 4.73333 6.125 3.75 7.525 3.05C8.925 2.35 10.4167 2 12 2C14.1667 2 16.1083 2.625 17.825 3.875C19.5417 5.125 20.75 6.75 21.45 8.75C21.5667 9.08333 21.529 9.375 21.337 9.625C21.1457 9.875 20.8583 10 20.475 10C20.2917 10 20.1083 9.929 19.925 9.787C19.7417 9.64567 19.6083 9.48333 19.525 9.3C18.9583 7.71667 17.9917 6.43767 16.625 5.463C15.2583 4.48767 13.7167 4 12 4C10.5667 4 9.23333 4.354 8 5.062C6.76667 5.77067 5.8 6.75 5.1 8H7C7.28333 8 7.521 8.09567 7.713 8.287C7.90433 8.479 8 8.71667 8 9C8 9.28333 7.90433 9.52067 7.713 9.712C7.521 9.904 7.28333 10 7 10H3ZM12 22C9.83333 22 7.89167 21.375 6.175 20.125C4.45833 18.875 3.25 17.25 2.55 15.25C2.43333 14.9167 2.471 14.625 2.663 14.375C2.85433 14.125 3.14167 14 3.525 14C3.70833 14 3.89167 14.0707 4.075 14.212C4.25833 14.354 4.39167 14.5167 4.475 14.7C5.04167 16.2833 6.00833 17.5627 7.375 18.538C8.74167 19.5127 10.2833 20 12 20C13.4333 20 14.7667 19.646 16 18.938C17.2333 18.2293 18.2 17.25 18.9 16H17C16.7167 16 16.4793 15.904 16.288 15.712C16.096 15.5207 16 15.2833 16 15C16 14.7167 16.096 14.479 16.288 14.287C16.4793 14.0957 16.7167 14 17 14H21C21.2833 14 21.5207 14.0957 21.712 14.287C21.904 14.479 22 14.7167 22 15V19C22 19.2833 21.904 19.5207 21.712 19.712C21.5207 19.904 21.2833 20 21 20C20.7167 20 20.4793 19.904 20.288 19.712C20.096 19.5207 20 19.2833 20 19V18C19.05 19.2667 17.875 20.25 16.475 20.95C15.075 21.65 13.5833 22 12 22Z" fill="#252526"/>
</svg>
