<svg width="24" height="24" viewBox="0 0 24 24" fill="none" xmlns="http://www.w3.org/2000/svg">
<path fill-rule="evenodd" clip-rule="evenodd" d="M15.8579 2C15.9378 3.04372 15.6078 4.07749 14.9378 4.88177C14.617 5.2808 14.2098 5.60182 13.7469 5.82067C13.284 6.03952 12.7776 6.15049 12.2656 6.14522C12.2329 5.64331 12.2995 5.13988 12.4615 4.66371C12.6235 4.18754 12.8778 3.74797 13.2098 3.37014C13.8888 2.59671 14.8343 2.10751 15.8579 2ZM17.7484 9.61875C17.4082 10.2181 17.2252 10.8937 17.2163 11.5828C17.2171 12.3579 17.4461 13.1156 17.8747 13.7615C18.3033 14.4073 18.9125 14.9127 19.6264 15.2146C19.3457 16.1264 18.9226 16.9881 18.3728 17.7677C17.6344 18.8723 16.8602 19.9514 15.6315 19.9713C15.0471 19.9848 14.6526 19.8168 14.2415 19.6417C13.8128 19.459 13.366 19.2687 12.6668 19.2687C11.9253 19.2687 11.4585 19.4651 11.0083 19.6546C10.6193 19.8183 10.2426 19.9769 9.71175 19.9989C8.54154 20.0422 7.6472 18.82 6.88198 17.7258C5.35251 15.4913 4.16154 11.4286 5.7582 8.66423C6.1268 8.00187 6.66068 7.44629 7.30783 7.05162C7.95498 6.65695 8.69333 6.43664 9.45094 6.41216C10.1146 6.39851 10.7515 6.65431 11.3099 6.87859C11.7369 7.05011 12.118 7.20318 12.43 7.20318C12.7044 7.20318 13.0748 7.05615 13.5066 6.8848C14.1867 6.61488 15.0188 6.28461 15.8668 6.37362C16.5167 6.39395 17.1529 6.56554 17.7249 6.87476C18.2969 7.18398 18.7889 7.62232 19.1618 8.15495C18.5748 8.51587 18.0885 9.01942 17.7484 9.61875Z" fill="#252526"/>
</svg>
