<svg width="24" height="24" viewBox="0 0 24 24" fill="none" xmlns="http://www.w3.org/2000/svg">
<path d="M10.6751 21C10.4918 21 10.3418 20.9333 10.2251 20.8C10.1084 20.6667 10.0668 20.5083 10.1001 20.325L11.0001 14H7.50011C7.25011 14 7.09578 13.9333 7.03712 13.8C6.97912 13.6667 7.01678 13.4833 7.15011 13.25L12.8501 3.275C12.8834 3.19167 12.9501 3.125 13.0501 3.075C13.1501 3.025 13.2418 3 13.3251 3C13.5084 3 13.6584 3.06667 13.7751 3.2C13.8918 3.33333 13.9334 3.49167 13.9001 3.675L13.0001 10H16.5001C16.7501 10 16.9041 10.0667 16.9621 10.2C17.0208 10.3333 16.9834 10.5167 16.8501 10.75L11.1501 20.725C11.1168 20.8083 11.0501 20.875 10.9501 20.925C10.8501 20.975 10.7584 21 10.6751 21Z" fill="#252526"/>
</svg>
