<svg width="24" height="24" viewBox="0 0 24 24" fill="none" xmlns="http://www.w3.org/2000/svg">
<path d="M5 20C4.45 20 3.979 19.8043 3.587 19.413C3.19567 19.021 3 18.55 3 18V6C3 5.45 3.19567 4.97933 3.587 4.588C3.979 4.196 4.45 4 5 4H6V3C6 2.44772 6.44772 2 7 2C7.55228 2 8 2.44772 8 3V4H14V3C14 2.44772 14.4477 2 15 2C15.5523 2 16 2.44772 16 3V4H17C17.55 4 18.021 4.196 18.413 4.588C18.8043 4.97933 19 5.45 19 6V12.1C18.6667 12.05 18.3333 12.025 18 12.025C17.6667 12.025 17.3333 12.05 17 12.1V10H5V18H12C12 18.3333 12.025 18.6667 12.075 19C12.125 19.3333 12.2167 19.6667 12.35 20H5ZM5 8H17V6H5V8Z" fill="#252526"/>
<path d="M17.288 21.712C17.4793 21.904 17.7167 22 18 22C18.2833 22 18.5207 21.904 18.712 21.712C18.904 21.5207 19 21.2833 19 21V19H21C21.2833 19 21.5207 18.904 21.712 18.712C21.904 18.5207 22 18.2833 22 18C22 17.7167 21.904 17.479 21.712 17.287C21.5207 17.0957 21.2833 17 21 17H19V15C19 14.7167 18.904 14.479 18.712 14.287C18.5207 14.0957 18.2833 14 18 14C17.7167 14 17.4793 14.0957 17.288 14.287C17.096 14.479 17 14.7167 17 15V17H15C14.7167 17 14.4793 17.0957 14.288 17.287C14.096 17.479 14 17.7167 14 18C14 18.2833 14.096 18.5207 14.288 18.712C14.4793 18.904 14.7167 19 15 19H17V21C17 21.2833 17.096 21.5207 17.288 21.712Z" fill="#252526"/>
</svg>
