<svg width="24" height="24" viewBox="0 0 24 24" fill="none" xmlns="http://www.w3.org/2000/svg">
<path d="M12 8C13.9667 8 15.904 8.396 17.812 9.188C19.7207 9.97933 21.4167 11.1667 22.9 12.75C23.1 12.95 23.2001 13.1833 23.2001 13.45C23.2001 13.7167 23.1 13.95 22.9 14.15L20.6 16.4C20.4167 16.5833 20.2044 16.6833 19.963 16.7C19.721 16.7167 19.5 16.65 19.3 16.5L16.4 14.3C16.2667 14.2 16.1667 14.0833 16.1 13.95C16.0334 13.8167 16 13.6667 16 13.5V10.65C15.3667 10.45 14.7167 10.2917 14.05 10.175C13.3834 10.0583 12.7 10 12 10C11.3 10 10.6167 10.0583 9.95005 10.175C9.28338 10.2917 8.63338 10.45 8.00005 10.65V13.5C8.00005 13.6667 7.96672 13.8167 7.90005 13.95C7.83338 14.0833 7.73338 14.2 7.60005 14.3L4.70005 16.5C4.50005 16.65 4.27938 16.7167 4.03805 16.7C3.79605 16.6833 3.58338 16.5833 3.40005 16.4L1.10005 14.15C0.900049 13.95 0.800049 13.7167 0.800049 13.45C0.800049 13.1833 0.900049 12.95 1.10005 12.75C2.56672 11.1667 4.25838 9.97933 6.17505 9.188C8.09172 8.396 10.0334 8 12 8Z" fill="#252526"/>
</svg>
