<svg width="24" height="24" viewBox="0 0 24 24" fill="none" xmlns="http://www.w3.org/2000/svg">
<path d="M19 13C18.7167 13 18.4793 12.904 18.288 12.712C18.096 12.5207 18 12.2833 18 12C18 11.7167 18.096 11.479 18.288 11.287C18.4793 11.0957 18.7167 11 19 11H21C21.2833 11 21.5207 11.0957 21.712 11.287C21.904 11.479 22 11.7167 22 12C22 12.2833 21.904 12.5207 21.712 12.712C21.5207 12.904 21.2833 13 21 13H19ZM18.4 19.4L16.8 18.2C16.5667 18.0333 16.4333 17.8167 16.4 17.55C16.3667 17.2833 16.4333 17.0333 16.6 16.8C16.7667 16.5667 16.9833 16.4333 17.25 16.4C17.5167 16.3667 17.7667 16.4333 18 16.6L19.6 17.8C19.8333 17.9667 19.9667 18.1833 20 18.45C20.0333 18.7167 19.9667 18.9667 19.8 19.2C19.6333 19.4333 19.4167 19.5667 19.15 19.6C18.8833 19.6333 18.6333 19.5667 18.4 19.4ZM18 7.4C17.7667 7.56666 17.5167 7.63333 17.25 7.6C16.9833 7.56666 16.7667 7.43333 16.6 7.2C16.4333 6.96666 16.3667 6.71666 16.4 6.45C16.4333 6.18333 16.5667 5.96666 16.8 5.8L18.4 4.6C18.6333 4.43333 18.8833 4.36666 19.15 4.4C19.4167 4.43333 19.6333 4.56666 19.8 4.8C19.9667 5.03333 20.0333 5.28333 20 5.55C19.9667 5.81666 19.8333 6.03333 19.6 6.2L18 7.4ZM5 19V15H4C3.45 15 2.97933 14.804 2.588 14.412C2.196 14.0207 2 13.55 2 13V11C2 10.45 2.196 9.979 2.588 9.587C2.97933 9.19566 3.45 9 4 9H8L11.475 6.9C11.8083 6.7 12.146 6.7 12.488 6.9C12.8293 7.1 13 7.39166 13 7.775V16.225C13 16.6083 12.8293 16.9 12.488 17.1C12.146 17.3 11.8083 17.3 11.475 17.1L8 15H7V19H5ZM14 15.35V8.65C14.45 9.05 14.8127 9.53766 15.088 10.113C15.3627 10.6877 15.5 11.3167 15.5 12C15.5 12.6833 15.3627 13.3123 15.088 13.887C14.8127 14.4623 14.45 14.95 14 15.35ZM11 14.45V9.55L8.55 11H4V13H8.55L11 14.45Z" fill="#252526"/>
</svg>
