<svg width="24" height="24" viewBox="0 0 24 24" fill="none" xmlns="http://www.w3.org/2000/svg">
<path d="M6.87495 3.99998H19C19.5499 3.99998 20.021 4.19598 20.413 4.58798C20.8043 4.97931 21 5.44998 21 5.99998V18.125L19 16.125V5.99998H8.87495L6.87495 3.99998ZM16.5 13.5C16.5 13.3666 16.55 13.25 16.65 13.15C16.75 13.05 16.8666 13 17 13H17.5C17.6333 13 17.75 13.05 17.85 13.15C17.95 13.25 18 13.3666 18 13.5V14C18 14.15 17.971 14.296 17.913 14.438C17.8543 14.5793 17.7666 14.6916 17.65 14.775L16.375 13.5H16.5ZM14 8.99998H17C17.2833 8.99998 17.5206 9.09564 17.712 9.28698C17.9039 9.47898 18 9.71664 18 9.99998V10.625C18 10.7583 17.95 10.875 17.85 10.975C17.75 11.075 17.6333 11.125 17.5 11.125H17C16.8666 11.125 16.75 11.075 16.65 10.975C16.55 10.875 16.5 10.7583 16.5 10.625V10.5H14.5V11.625L13 10.125V9.99998C13 9.71664 13.096 9.47898 13.288 9.28698C13.4793 9.09564 13.7166 8.99998 14 8.99998ZM9.02495 8.99998L10.525 10.5H7.49995V13.5H9.49995V13.375C9.49995 13.2416 9.54995 13.125 9.64995 13.025C9.74995 12.925 9.86662 12.875 9.99995 12.875H10.5C10.6333 12.875 10.75 12.925 10.85 13.025C10.95 13.125 11 13.2416 11 13.375V14C11 14.2833 10.9043 14.5206 10.713 14.712C10.521 14.904 10.2833 15 9.99995 15H6.99995C6.71662 15 6.47895 14.904 6.28695 14.712C6.09562 14.5206 5.99995 14.2833 5.99995 14V9.99998C5.99995 9.71664 6.09562 9.47898 6.28695 9.28698C6.47895 9.09564 6.71662 8.99998 6.99995 8.99998H9.02495ZM4.19995 4.17498L6.02495 5.99998H4.99995V18H15.175L1.37495 4.19998C1.17495 3.99998 1.07495 3.76231 1.07495 3.48698C1.07495 3.21231 1.17495 2.97498 1.37495 2.77498C1.57495 2.57498 1.81228 2.47498 2.08695 2.47498C2.36228 2.47498 2.59995 2.57498 2.79995 2.77498L21.2 21.175C21.4 21.375 21.5 21.6083 21.5 21.875C21.5 22.1416 21.4 22.375 21.2 22.575C21 22.775 20.7626 22.875 20.488 22.875C20.2126 22.875 19.975 22.775 19.775 22.575L17.1749 20H4.99995C4.44995 20 3.97895 19.8043 3.58695 19.413C3.19562 19.021 2.99995 18.55 2.99995 18V5.99998C2.99995 5.58331 3.11262 5.21231 3.33795 4.88698C3.56262 4.56231 3.84995 4.32498 4.19995 4.17498Z" fill="#252526"/>
</svg>
