<svg width="24" height="24" viewBox="0 0 24 24" fill="none" xmlns="http://www.w3.org/2000/svg">
<path d="M7 15H10C10.2833 15 10.521 14.904 10.713 14.712C10.9043 14.5207 11 14.2833 11 14V13.375C11 13.2417 10.95 13.125 10.85 13.025C10.75 12.925 10.6333 12.875 10.5 12.875H10C9.86667 12.875 9.75 12.925 9.65 13.025C9.55 13.125 9.5 13.2417 9.5 13.375V13.5H7.5V10.5H9.5V10.625C9.5 10.7583 9.55 10.875 9.65 10.975C9.75 11.075 9.86667 11.125 10 11.125H10.5C10.6333 11.125 10.75 11.075 10.85 10.975C10.95 10.875 11 10.7583 11 10.625V10C11 9.71667 10.9043 9.479 10.713 9.287C10.521 9.09567 10.2833 9 10 9H7C6.71667 9 6.479 9.09567 6.287 9.287C6.09567 9.479 6 9.71667 6 10V14C6 14.2833 6.09567 14.5207 6.287 14.712C6.479 14.904 6.71667 15 7 15ZM14 15H17C17.2833 15 17.5207 14.904 17.712 14.712C17.904 14.5207 18 14.2833 18 14V13.375C18 13.2417 17.95 13.125 17.85 13.025C17.75 12.925 17.6333 12.875 17.5 12.875H17C16.8667 12.875 16.75 12.925 16.65 13.025C16.55 13.125 16.5 13.2417 16.5 13.375V13.5H14.5V10.5H16.5V10.625C16.5 10.7583 16.55 10.875 16.65 10.975C16.75 11.075 16.8667 11.125 17 11.125H17.5C17.6333 11.125 17.75 11.075 17.85 10.975C17.95 10.875 18 10.7583 18 10.625V10C18 9.71667 17.904 9.479 17.712 9.287C17.5207 9.09567 17.2833 9 17 9H14C13.7167 9 13.4793 9.09567 13.288 9.287C13.096 9.479 13 9.71667 13 10V14C13 14.2833 13.096 14.5207 13.288 14.712C13.4793 14.904 13.7167 15 14 15ZM5 4H19C19.55 4 20.021 4.196 20.413 4.588C20.8043 4.97933 21 5.45 21 6V18C21 18.55 20.8043 19.021 20.413 19.413C20.021 19.8043 19.55 20 19 20H5C4.45 20 3.979 19.8043 3.587 19.413C3.19567 19.021 3 18.55 3 18V6C3 5.45 3.19567 4.97933 3.587 4.588C3.979 4.196 4.45 4 5 4ZM19 6H5V18H19V6ZM5 18V6V18Z" fill="#252526"/>
</svg>
