<svg width="24" height="24" viewBox="0 0 24 24" fill="none" xmlns="http://www.w3.org/2000/svg">
<path d="M2 15.8V3C2 2.71667 2.096 2.479 2.288 2.287C2.47933 2.09567 2.71667 2 3 2H16C16.2833 2 16.5207 2.09567 16.712 2.287C16.904 2.479 17 2.71667 17 3V12C17 12.2833 16.904 12.5207 16.712 12.712C16.5207 12.904 16.2833 13 16 13H6L2.85 16.15C2.68333 16.3167 2.5 16.3583 2.3 16.275C2.1 16.1917 2 16.0333 2 15.8ZM4 4V11V4ZM7 18C6.71667 18 6.479 17.904 6.287 17.712C6.09567 17.5207 6 17.2833 6 17V15H19V6H21C21.2833 6 21.5207 6.09567 21.712 6.287C21.904 6.479 22 6.71667 22 7V20.8C22 21.0333 21.9 21.1917 21.7 21.275C21.5 21.3583 21.3167 21.3167 21.15 21.15L18 18H7ZM15 4H4V11H15V4Z" fill="black"/>
</svg>
