<svg width="24" height="24" viewBox="0 0 24 24" fill="none" xmlns="http://www.w3.org/2000/svg">
<path d="M11.6411 20.875C11.3577 20.875 11.0827 20.8125 10.8161 20.6875C10.5494 20.5625 10.3161 20.3833 10.1161 20.15L2.46607 11C2.21607 10.7 2.06607 10.35 2.01607 9.95C1.96607 9.55 2.03274 9.175 2.21607 8.825L4.09107 5.1C4.2744 4.76667 4.52024 4.5 4.82857 4.3C5.1369 4.1 5.48274 4 5.86607 4H17.4161C17.7994 4 18.1452 4.1 18.4536 4.3C18.7619 4.5 19.0077 4.76667 19.1911 5.1L21.0661 8.825C21.2494 9.175 21.3161 9.55 21.2661 9.95C21.2161 10.35 21.0661 10.7 20.8161 11L13.1661 20.15C12.9661 20.3833 12.7327 20.5625 12.4661 20.6875C12.1994 20.8125 11.9244 20.875 11.6411 20.875ZM9.26607 9H14.0161L12.5161 6H10.7661L9.26607 9ZM10.6411 17.675V11H5.09107L10.6411 17.675ZM12.6411 17.675L18.1911 11H12.6411V17.675ZM16.2411 9H18.8911L17.3911 6H14.7411L16.2411 9ZM4.39107 9H7.04107L8.54107 6H5.89107L4.39107 9Z" fill="#252526"/>
</svg>
