<svg width="24" height="24" viewBox="0 0 24 24" fill="none" xmlns="http://www.w3.org/2000/svg">
<path d="M18.8501 9.40001L14.6001 5.15001L16.0251 3.72501C16.4084 3.34168 16.8794 3.15001 17.4381 3.15001C17.9961 3.15001 18.4668 3.34168 18.8501 3.72501L20.2751 5.15001C20.6584 5.53335 20.8501 6.00401 20.8501 6.56201C20.8501 7.12068 20.6584 7.59168 20.2751 7.97501L18.8501 9.40001ZM3.0001 21V16.75L7.5001 12.25L2.2251 6.92501L6.9501 2.20001L12.2501 7.52501L14.6001 5.15001L18.8501 9.40001L16.5001 11.75L21.7751 17.075L17.0751 21.775L11.7501 16.475L7.2501 21H3.0001ZM8.9251 10.825L10.8251 8.92501L9.6251 7.72501L8.4251 8.90001L7.0251 7.50001L8.2001 6.30001L6.9251 5.05001L5.0501 6.95001L8.9251 10.825ZM17.0501 18.95L18.9501 17.05L17.6751 15.8L16.5001 16.975L15.0751 15.575L16.2751 14.375L15.0501 13.175L13.1501 15.075L17.0501 18.95ZM5.0001 19H6.4001L16.0251 9.40001L14.6001 7.97501L5.0001 17.6V19Z" fill="#252526"/>
</svg>
