<svg width="24" height="24" viewBox="0 0 24 24" fill="none" xmlns="http://www.w3.org/2000/svg">
<path fill-rule="evenodd" clip-rule="evenodd" d="M14 7C14 4.79 12.21 3 10 3C7.79 3 6 4.79 6 7C6 9.21 7.79 11 10 11C12.21 11 14 9.21 14 7ZM2 17V19H11.7716L13.2716 17.5L11.1716 15.4L13.1524 13.4192C12.0036 13.14 10.8629 13 10 13C7.33 13 2 14.34 2 17ZM17.4 19H17.4001L17.5 18.9L19.6 21L21 19.6L18.9 17.5L21 15.4L19.6 14L17.5 16.1L15.7256 14.3255C15.7255 14.3255 15.7255 14.3255 15.7255 14.3255L15.4 14L14 15.4L16.1 17.5L14 19.6L15.4 21L17.4 19Z" fill="#211F30"/>
</svg>
