<svg width="400" height="400" viewBox="0 0 400 400" fill="none" xmlns="http://www.w3.org/2000/svg">
<path d="M324.954 86.8503C301.302 76.0217 276.332 68.3395 250.684 64C247.174 70.2743 243.998 76.7297 241.17 83.3393C213.849 79.2223 186.065 79.2223 158.744 83.3393C155.914 76.7304 152.739 70.2751 149.23 64C123.565 68.3762 98.579 76.0766 74.9029 86.907C27.8997 156.449 15.1578 224.264 21.5287 291.116C49.055 311.454 79.8647 326.921 112.619 336.845C119.994 326.926 126.52 316.402 132.128 305.387C121.477 301.409 111.196 296.501 101.406 290.72C103.983 288.851 106.503 286.925 108.938 285.056C137.426 298.454 168.519 305.4 199.999 305.4C231.48 305.4 262.573 298.454 291.061 285.056C293.524 287.067 296.044 288.992 298.593 290.72C288.784 296.51 278.484 301.427 267.814 305.415C273.415 316.425 279.942 326.94 287.323 336.845C320.105 326.96 350.939 311.501 378.47 291.144C385.945 213.617 365.7 146.425 324.954 86.8503ZM140.198 250.002C122.444 250.002 107.777 233.891 107.777 214.07C107.777 194.25 121.934 177.997 140.141 177.997C158.348 177.997 172.902 194.25 172.59 214.07C172.279 233.891 158.291 250.002 140.198 250.002ZM259.801 250.002C242.019 250.002 227.408 233.891 227.408 214.07C227.408 194.25 241.566 177.997 259.801 177.997C278.036 177.997 292.477 194.25 292.165 214.07C291.854 233.891 277.894 250.002 259.801 250.002Z" fill="black"/>
</svg>
