<svg width="24" height="24" viewBox="0 0 24 24" fill="none" xmlns="http://www.w3.org/2000/svg">
<path d="M2.48187 16.3368H4.70466V14.114H6.1814V11.8912H2.48187V16.3368Z" fill="#211F30"/>
<path d="M11.8861 9.6114C11.8861 9.32272 11.9697 9.05263 12.114 8.82418C12.377 8.40765 12.8416 8.12953 13.3679 8.12953H17.8135C18.6285 8.12953 19.2954 8.79637 19.2954 9.6114V15.5389H11.8861V9.6114Z" fill="#211F30"/>
<path d="M12.114 4.48187V6.36311C10.812 6.86759 9.88606 8.13361 9.88606 9.6114V10.4093H4.70466V4.48187C4.70466 3.66684 5.3715 3 6.18653 3H10.6321C11.4471 3 12.114 3.66684 12.114 4.48187Z" fill="#211F30"/>
<path d="M1 8.18653H3.2228V10.4093H1V8.18653Z" fill="#211F30"/>
<path d="M9.66326 21.4663V17.0207H21.5182V21.4663H19.2954V19.2435H11.8861V21.4663H9.66326Z" fill="#211F30"/>
<path d="M23 13.3161H20.7773V15.5389H23V13.3161Z" fill="#211F30"/>
<path d="M10.4042 13.3161H8.1814V15.5389H10.4042V13.3161Z" fill="#211F30"/>
</svg>
