<svg width="24" height="24" viewBox="0 0 24 24" fill="none" xmlns="http://www.w3.org/2000/svg">
<path d="M19.975 16.975L13.775 12.825C13.475 12.625 13.325 12.35 13.325 12C13.325 11.65 13.475 11.375 13.775 11.175L19.975 7.02501C20.3083 6.80834 20.65 6.79567 21 6.98701C21.35 7.17901 21.525 7.47501 21.525 7.87501V16.125C21.525 16.525 21.35 16.825 21 17.025C20.65 17.225 20.3083 17.2083 19.975 16.975ZM9.97495 16.975L3.77495 12.825C3.47495 12.625 3.32495 12.35 3.32495 12C3.32495 11.65 3.47495 11.375 3.77495 11.175L9.97495 7.02501C10.3083 6.80834 10.65 6.79567 11 6.98701C11.35 7.17901 11.525 7.47501 11.525 7.87501V16.125C11.525 16.525 11.35 16.825 11 17.025C10.65 17.225 10.3083 17.2083 9.97495 16.975Z" fill="#252526"/>
</svg>
