<svg width="24" height="24" viewBox="0 0 24 24" fill="none" xmlns="http://www.w3.org/2000/svg">
<path d="M4 21C3.71667 21 3.47933 20.904 3.288 20.712C3.096 20.5207 3 20.2833 3 20C3 19.7167 3.096 19.4793 3.288 19.288C3.47933 19.096 3.71667 19 4 19H20C20.2833 19 20.5207 19.096 20.712 19.288C20.904 19.4793 21 19.7167 21 20C21 20.2833 20.904 20.5207 20.712 20.712C20.5207 20.904 20.2833 21 20 21H4ZM3 14.8V9.2C3 8.96667 3.1 8.80833 3.3 8.725C3.5 8.64167 3.68333 8.68333 3.85 8.85L6.65 11.65C6.75 11.75 6.8 11.8667 6.8 12C6.8 12.1333 6.75 12.25 6.65 12.35L3.85 15.15C3.68333 15.3167 3.5 15.3583 3.3 15.275C3.1 15.1917 3 15.0333 3 14.8ZM12 17C11.7167 17 11.4793 16.904 11.288 16.712C11.096 16.5207 11 16.2833 11 16C11 15.7167 11.096 15.479 11.288 15.287C11.4793 15.0957 11.7167 15 12 15H20C20.2833 15 20.5207 15.0957 20.712 15.287C20.904 15.479 21 15.7167 21 16C21 16.2833 20.904 16.5207 20.712 16.712C20.5207 16.904 20.2833 17 20 17H12ZM4 5C3.71667 5 3.47933 4.904 3.288 4.712C3.096 4.52067 3 4.28333 3 4C3 3.71667 3.096 3.479 3.288 3.287C3.47933 3.09567 3.71667 3 4 3H20C20.2833 3 20.5207 3.09567 20.712 3.287C20.904 3.479 21 3.71667 21 4C21 4.28333 20.904 4.52067 20.712 4.712C20.5207 4.904 20.2833 5 20 5H4ZM12 9C11.7167 9 11.4793 8.904 11.288 8.712C11.096 8.52067 11 8.28333 11 8C11 7.71667 11.096 7.479 11.288 7.287C11.4793 7.09567 11.7167 7 12 7H20C20.2833 7 20.5207 7.09567 20.712 7.287C20.904 7.479 21 7.71667 21 8C21 8.28333 20.904 8.52067 20.712 8.712C20.5207 8.904 20.2833 9 20 9H12ZM12 13C11.7167 13 11.4793 12.904 11.288 12.712C11.096 12.5207 11 12.2833 11 12C11 11.7167 11.096 11.479 11.288 11.287C11.4793 11.0957 11.7167 11 12 11H20C20.2833 11 20.5207 11.0957 20.712 11.287C20.904 11.479 21 11.7167 21 12C21 12.2833 20.904 12.5207 20.712 12.712C20.5207 12.904 20.2833 13 20 13H12Z" fill="#252526"/>
</svg>
