<svg width="24" height="24" viewBox="0 0 24 24" fill="none" xmlns="http://www.w3.org/2000/svg">
<path fill-rule="evenodd" clip-rule="evenodd" d="M8.488 21.288C9.57933 21.7627 10.75 22 12 22C14.3333 22 16.346 21.2333 18.038 19.7C19.7293 18.1667 20.7 16.2667 20.95 14C20.9833 13.7333 20.904 13.5 20.712 13.3C20.5207 13.1 20.2833 13 20 13C19.7167 13 19.475 13.0957 19.275 13.287C19.075 13.479 18.9583 13.7167 18.925 14C18.6917 15.7167 17.925 17.146 16.625 18.288C15.325 19.4293 13.7833 20 12 20C10.05 20 8.396 19.3207 7.038 17.962C5.67933 16.604 5 14.95 5 13C5 11.05 5.67933 9.39565 7.038 8.03698C8.396 6.67898 10.05 5.99998 12 5.99998H12.15L11.3 6.84998C11.1167 7.03332 11.025 7.26665 11.025 7.54998C11.025 7.83332 11.1167 8.06665 11.3 8.24998C11.4833 8.43332 11.721 8.52898 12.013 8.53698C12.3043 8.54565 12.5417 8.45832 12.725 8.27498L15.3 5.69998C15.4 5.59998 15.471 5.49165 15.513 5.37498C15.5543 5.25832 15.575 5.13332 15.575 4.99998C15.575 4.86665 15.5543 4.74165 15.513 4.62498C15.471 4.50832 15.4 4.39999 15.3 4.29999L12.725 1.72499C12.525 1.52498 12.2877 1.42898 12.013 1.43698C11.7377 1.44565 11.5 1.54998 11.3 1.74998C11.0833 1.96665 10.9833 2.20832 11 2.47498C11.0167 2.74165 11.1167 2.96665 11.3 3.14999L12.15 3.99998H12C10.75 3.99998 9.57933 4.23765 8.488 4.71298C7.396 5.18765 6.446 5.82898 5.638 6.63698C4.82933 7.44565 4.18733 8.39565 3.712 9.48699C3.23733 10.579 3 11.75 3 13C3 14.25 3.23733 15.4207 3.712 16.512C4.18733 17.604 4.82933 18.554 5.638 19.362C6.446 20.1707 7.396 20.8127 8.488 21.288ZM11.4301 14.82C11.4501 15.07 11.5901 15.38 12.0301 15.38C12.5889 15.38 12.6197 14.7789 12.6276 14.6236C12.6285 14.6066 12.6291 14.5949 12.6301 14.59C12.6301 14.07 12.3401 13.84 11.9401 13.84C11.6501 13.84 11.5001 13.94 11.3701 14.07L10.7001 13.9L10.9501 11.73H13.3401V12.44H11.6401L11.5301 13.36C11.7401 13.25 11.9701 13.2 12.1701 13.2C12.5001 13.2 13.4701 13.31 13.4701 14.64C13.4701 15.44 12.9601 16.07 12.0301 16.07C11.3801 16.07 10.6201 15.67 10.5901 14.82H11.4301Z" fill="#252526"/>
</svg>
