<svg width="24" height="24" viewBox="0 0 24 24" fill="none" xmlns="http://www.w3.org/2000/svg">
<path fill-rule="evenodd" clip-rule="evenodd" d="M8.488 21.288C9.57933 21.7627 10.75 22 12 22C14.3333 22 16.346 21.2333 18.038 19.7C19.7293 18.1667 20.7 16.2667 20.95 14C20.9833 13.7333 20.904 13.5 20.712 13.3C20.5207 13.1 20.2833 13 20 13C19.7167 13 19.475 13.0957 19.275 13.287C19.075 13.479 18.9583 13.7167 18.925 14C18.6917 15.7167 17.925 17.146 16.625 18.288C15.325 19.4293 13.7833 20 12 20C10.05 20 8.396 19.3207 7.038 17.962C5.67933 16.604 5 14.95 5 13C5 11.05 5.67933 9.39565 7.038 8.03698C8.396 6.67898 10.05 5.99998 12 5.99998H12.15L11.3 6.84998C11.1167 7.03332 11.025 7.26665 11.025 7.54998C11.025 7.83332 11.1167 8.06665 11.3 8.24998C11.4833 8.43332 11.721 8.52898 12.013 8.53698C12.3043 8.54565 12.5417 8.45832 12.725 8.27498L15.3 5.69998C15.4 5.59998 15.471 5.49165 15.513 5.37498C15.5543 5.25832 15.575 5.13332 15.575 4.99998C15.575 4.86665 15.5543 4.74165 15.513 4.62498C15.471 4.50832 15.4 4.39999 15.3 4.29998L12.725 1.72499C12.525 1.52499 12.2877 1.42898 12.013 1.43699C11.7377 1.44565 11.5 1.54998 11.3 1.74998C11.0833 1.96665 10.9833 2.20832 11 2.47499C11.0167 2.74165 11.1167 2.96665 11.3 3.14999L12.15 3.99998H12C10.75 3.99998 9.57933 4.23765 8.488 4.71299C7.396 5.18765 6.446 5.82898 5.638 6.63698C4.82933 7.44565 4.18733 8.39565 3.712 9.48699C3.23733 10.579 3 11.75 3 13C3 14.25 3.23733 15.4207 3.712 16.512C4.18733 17.604 4.82933 18.554 5.638 19.362C6.446 20.1707 7.396 20.8127 8.488 21.288ZM13.8499 11.68L13.8334 11.6798C13.6297 11.6769 12.4099 11.6596 12.4099 13.5V14.24C12.4099 16.0813 13.6402 16.063 13.8346 16.0602L13.8499 16.06L13.8683 16.0602C14.0774 16.0638 15.2899 16.0846 15.2899 14.24V13.5C15.2996 11.6553 14.0779 11.6762 13.8683 11.6798L13.8499 11.68ZM14.4499 14.35C14.4499 15.12 14.2399 15.38 13.8599 15.38C13.4799 15.38 13.2599 15.12 13.2599 14.35V13.38C13.2599 12.63 13.4799 12.37 13.8499 12.37C14.2299 12.37 14.4499 12.63 14.4499 13.38V14.35ZM10.0601 15.38C9.77009 15.38 9.44009 15.21 9.44009 14.84H8.59009C8.59009 15.81 9.49009 16.07 10.0401 16.07C10.9101 16.07 11.5501 15.61 11.5501 14.82C11.5501 14.16 11.1001 13.92 10.8401 13.82C10.9501 13.77 11.4901 13.5 11.4901 12.9C11.4901 12.69 11.4401 11.68 10.0501 11.68C9.43009 11.68 8.65009 12.03 8.65009 12.84H9.50009C9.50009 12.5 9.81009 12.36 10.0701 12.36C10.6517 12.36 10.6503 12.8459 10.6501 12.898L10.6501 12.9C10.6501 13.42 10.2401 13.49 10.0201 13.49H9.56009V14.15H10.0101C10.6601 14.15 10.7101 14.57 10.7101 14.79C10.7101 15.11 10.5001 15.38 10.0601 15.38Z" fill="#252526"/>
</svg>
