<svg width="24" height="24" viewBox="0 0 24 24" fill="none" xmlns="http://www.w3.org/2000/svg">
<path fill-rule="evenodd" clip-rule="evenodd" d="M12 22C10.75 22 9.57933 21.7627 8.488 21.288C7.396 20.8127 6.446 20.1707 5.638 19.362C4.82933 18.554 4.18733 17.604 3.712 16.512C3.23733 15.4207 3 14.25 3 13C3 11.75 3.23733 10.579 3.712 9.48699C4.18733 8.39565 4.82933 7.44565 5.638 6.63698C6.446 5.82898 7.396 5.18765 8.488 4.71298C9.57933 4.23765 10.75 3.99998 12 3.99998H12.15L11.3 3.14999C11.1167 2.96665 11.0167 2.74165 11 2.47498C10.9833 2.20832 11.0833 1.96665 11.3 1.74998C11.5 1.54998 11.7377 1.44565 12.013 1.43698C12.2877 1.42898 12.525 1.52498 12.725 1.72499L15.3 4.29999C15.4 4.39999 15.471 4.50832 15.513 4.62498C15.5543 4.74165 15.575 4.86665 15.575 4.99998C15.575 5.13332 15.5543 5.25832 15.513 5.37498C15.471 5.49165 15.4 5.59998 15.3 5.69998L12.725 8.27498C12.5417 8.45832 12.3043 8.54565 12.013 8.53698C11.721 8.52898 11.4833 8.43332 11.3 8.24998C11.1167 8.06665 11.025 7.83332 11.025 7.54998C11.025 7.26665 11.1167 7.03332 11.3 6.84998L12.15 5.99998H12C10.05 5.99998 8.396 6.67898 7.038 8.03698C5.67933 9.39565 5 11.05 5 13C5 14.95 5.67933 16.604 7.038 17.962C8.396 19.3207 10.05 20 12 20C13.7833 20 15.325 19.4293 16.625 18.288C17.925 17.146 18.6917 15.7167 18.925 14C18.9583 13.7167 19.075 13.479 19.275 13.287C19.475 13.0957 19.7167 13 20 13C20.2833 13 20.5207 13.1 20.712 13.3C20.904 13.5 20.9833 13.7333 20.95 14C20.7 16.2667 19.7293 18.1667 18.038 19.7C16.346 21.2333 14.3333 22 12 22ZM10.86 15.94V11.67H10.77L9 12.3V12.99L10.01 12.68V15.94H10.86ZM12.25 14.18V13.44C12.25 11.5954 13.4625 11.6162 13.6716 11.6198C13.6791 11.6199 13.6852 11.62 13.69 11.62C13.694 11.62 13.6992 11.6199 13.7053 11.6198C13.8997 11.6169 15.13 11.5987 15.13 13.44V14.18C15.13 16.0246 13.9175 16.0038 13.7084 16.0002C13.7009 16.0001 13.6948 16 13.69 16C13.686 16 13.6808 16.0001 13.6747 16.0002C13.4803 16.003 12.25 16.0213 12.25 14.18ZM14.29 14.29V13.32C14.29 12.57 14.07 12.3 13.69 12.31C13.32 12.31 13.1 12.57 13.1 13.32V14.29C13.1 15.06 13.32 15.32 13.7 15.32C14.08 15.32 14.29 15.06 14.29 14.29Z" fill="#252526"/>
</svg>
