<svg width="24" height="24" viewBox="0 0 24 24" fill="none" xmlns="http://www.w3.org/2000/svg">
<path d="M6 19C5.71667 19 5.479 18.904 5.287 18.712C5.09567 18.5207 5 18.2833 5 18V15C5 14.7167 5.09567 14.479 5.287 14.287C5.479 14.0957 5.71667 14 6 14C6.28333 14 6.521 14.0957 6.713 14.287C6.90433 14.479 7 14.7167 7 15V17H9C9.28333 17 9.521 17.096 9.713 17.288C9.90433 17.4793 10 17.7167 10 18C10 18.2833 9.90433 18.5207 9.713 18.712C9.521 18.904 9.28333 19 9 19H6ZM6 10C5.71667 10 5.479 9.904 5.287 9.712C5.09567 9.52067 5 9.28333 5 9V6C5 5.71667 5.09567 5.479 5.287 5.287C5.479 5.09567 5.71667 5 6 5H9C9.28333 5 9.521 5.09567 9.713 5.287C9.90433 5.479 10 5.71667 10 6C10 6.28333 9.90433 6.521 9.713 6.713C9.521 6.90433 9.28333 7 9 7H7V9C7 9.28333 6.90433 9.52067 6.713 9.712C6.521 9.904 6.28333 10 6 10ZM15 19C14.7167 19 14.4793 18.904 14.288 18.712C14.096 18.5207 14 18.2833 14 18C14 17.7167 14.096 17.4793 14.288 17.288C14.4793 17.096 14.7167 17 15 17H17V15C17 14.7167 17.096 14.479 17.288 14.287C17.4793 14.0957 17.7167 14 18 14C18.2833 14 18.5207 14.0957 18.712 14.287C18.904 14.479 19 14.7167 19 15V18C19 18.2833 18.904 18.5207 18.712 18.712C18.5207 18.904 18.2833 19 18 19H15ZM18 10C17.7167 10 17.4793 9.904 17.288 9.712C17.096 9.52067 17 9.28333 17 9V7H15C14.7167 7 14.4793 6.90433 14.288 6.713C14.096 6.521 14 6.28333 14 6C14 5.71667 14.096 5.479 14.288 5.287C14.4793 5.09567 14.7167 5 15 5H18C18.2833 5 18.5207 5.09567 18.712 5.287C18.904 5.479 19 5.71667 19 6V9C19 9.28333 18.904 9.52067 18.712 9.712C18.5207 9.904 18.2833 10 18 10Z" fill="#252526"/>
</svg>
