<svg width="24" height="24" viewBox="0 0 24 24" fill="none" xmlns="http://www.w3.org/2000/svg">
<path d="M9 19C8.71667 19 8.47933 18.904 8.288 18.712C8.096 18.5207 8 18.2833 8 18V16H6C5.71667 16 5.479 15.904 5.287 15.712C5.09567 15.5207 5 15.2833 5 15C5 14.7167 5.09567 14.479 5.287 14.287C5.479 14.0957 5.71667 14 6 14H9C9.28333 14 9.521 14.0957 9.713 14.287C9.90433 14.479 10 14.7167 10 15V18C10 18.2833 9.90433 18.5207 9.713 18.712C9.521 18.904 9.28333 19 9 19ZM6 10C5.71667 10 5.479 9.904 5.287 9.712C5.09567 9.52067 5 9.28333 5 9C5 8.71667 5.09567 8.479 5.287 8.287C5.479 8.09567 5.71667 8 6 8H8V6C8 5.71667 8.096 5.479 8.288 5.287C8.47933 5.09567 8.71667 5 9 5C9.28333 5 9.521 5.09567 9.713 5.287C9.90433 5.479 10 5.71667 10 6V9C10 9.28333 9.90433 9.52067 9.713 9.712C9.521 9.904 9.28333 10 9 10H6ZM15 19C14.7167 19 14.4793 18.904 14.288 18.712C14.096 18.5207 14 18.2833 14 18V15C14 14.7167 14.096 14.479 14.288 14.287C14.4793 14.0957 14.7167 14 15 14H18C18.2833 14 18.5207 14.0957 18.712 14.287C18.904 14.479 19 14.7167 19 15C19 15.2833 18.904 15.5207 18.712 15.712C18.5207 15.904 18.2833 16 18 16H16V18C16 18.2833 15.9043 18.5207 15.713 18.712C15.521 18.904 15.2833 19 15 19ZM15 10C14.7167 10 14.4793 9.904 14.288 9.712C14.096 9.52067 14 9.28333 14 9V6C14 5.71667 14.096 5.479 14.288 5.287C14.4793 5.09567 14.7167 5 15 5C15.2833 5 15.521 5.09567 15.713 5.287C15.9043 5.479 16 5.71667 16 6V8H18C18.2833 8 18.5207 8.09567 18.712 8.287C18.904 8.479 19 8.71667 19 9C19 9.28333 18.904 9.52067 18.712 9.712C18.5207 9.904 18.2833 10 18 10H15Z" fill="#252526"/>
</svg>
