<svg width="24" height="24" viewBox="0 0 24 24" fill="none" xmlns="http://www.w3.org/2000/svg">
<path fill-rule="evenodd" clip-rule="evenodd" d="M21.1 18.15L19.1 16.15V14H17.1V14.15L15.625 12.675C15.7917 12.475 16 12.3127 16.25 12.188C16.5 12.0627 16.7833 12 17.1 12H19.1V11C19.1 9.03333 18.4167 7.375 17.05 6.025C15.6833 4.675 14.0333 4 12.1 4C11.3667 4 10.6707 4.104 10.012 4.312C9.354 4.52067 8.75 4.81667 8.2 5.2L6.75 3.8C7.5 3.21667 8.32933 2.77067 9.238 2.462C10.146 2.154 11.1 2 12.1 2C13.3333 2 14.496 2.23333 15.588 2.7C16.6793 3.16667 17.6333 3.80833 18.45 4.625C19.2667 5.44167 19.9127 6.39567 20.388 7.487C20.8627 8.579 21.1 9.75 21.1 11V18.15ZM15.688 19.413C16.0793 19.8043 16.55 20 17.1 20L19.925 22.825C20.0583 22.9583 20.2543 23.0167 20.513 23C20.771 22.9833 21 22.875 21.2 22.675C21.3833 22.475 21.475 22.2373 21.475 21.962C21.475 21.6873 21.3833 21.4583 21.2 21.275L2.82497 2.875C2.62497 2.675 2.39163 2.579 2.12497 2.587C1.8583 2.59567 1.62497 2.69167 1.42497 2.875C1.22497 3.075 1.12097 3.30834 1.11297 3.575C1.1043 3.84167 1.19997 4.075 1.39997 4.275L4.07497 6.95C3.74163 7.58333 3.49597 8.229 3.33797 8.887C3.1793 9.54567 3.09997 10.25 3.09997 11V18C3.09997 18.55 3.29597 19.021 3.68797 19.413C4.0793 19.8043 4.54997 20 5.09997 20H7.09997C7.64997 20 8.12063 19.8043 8.51197 19.413C8.90397 19.021 9.09997 18.55 9.09997 18V14C9.09997 13.45 8.90397 12.979 8.51197 12.587C8.12063 12.1957 7.64997 12 7.09997 12H5.09997V11C5.09997 10.55 5.14163 10.1167 5.22497 9.7C5.3083 9.28334 5.42497 8.875 5.57497 8.475L15.1 18C15.1 18.55 15.296 19.021 15.688 19.413ZM7.09998 18H5.09998V14H7.09998V18Z" fill="#252526"/>
</svg>
