<svg width="24" height="24" viewBox="0 0 24 24" fill="none" xmlns="http://www.w3.org/2000/svg">
<path d="M5 21C4.45 21 3.979 20.8043 3.587 20.413C3.19567 20.021 3 19.55 3 19V12C3 10.75 3.23733 9.579 3.712 8.487C4.18733 7.39567 4.82933 6.44567 5.638 5.637C6.446 4.829 7.396 4.18733 8.488 3.712C9.57933 3.23733 10.75 3 12 3C13.25 3 14.421 3.23733 15.513 3.712C16.6043 4.18733 17.5543 4.829 18.363 5.637C19.171 6.44567 19.8127 7.39567 20.288 8.487C20.7627 9.579 21 10.75 21 12V19C21 19.55 20.8043 20.021 20.413 20.413C20.021 20.8043 19.55 21 19 21H17C16.45 21 15.9793 20.8043 15.588 20.413C15.196 20.021 15 19.55 15 19V15C15 14.45 15.196 13.979 15.588 13.587C15.9793 13.1957 16.45 13 17 13H19V12C19 10.05 18.3207 8.39567 16.962 7.037C15.604 5.679 13.95 5 12 5C10.05 5 8.396 5.679 7.038 7.037C5.67933 8.39567 5 10.05 5 12V13H7C7.55 13 8.02067 13.1957 8.412 13.587C8.804 13.979 9 14.45 9 15V19C9 19.55 8.804 20.021 8.412 20.413C8.02067 20.8043 7.55 21 7 21H5ZM5 19H7V15H5V19ZM17 19H19V15H17V19ZM5 19H7H5ZM17 19H19H17Z" fill="#252526"/>
</svg>
