<svg width="24" height="24" viewBox="0 0 24 24" fill="none" xmlns="http://www.w3.org/2000/svg">
<path fill-rule="evenodd" clip-rule="evenodd" d="M11.9998 4.62155C14.4031 4.62155 14.6874 4.63084 15.6366 4.67407C16.514 4.71408 16.9906 4.86055 17.3078 4.9838C17.728 5.14707 18.0277 5.34213 18.3428 5.65686C18.6579 5.97196 18.853 6.27169 19.0159 6.69181C19.1391 7.00905 19.2856 7.48562 19.3256 8.36302C19.3688 9.31188 19.3781 9.59661 19.3781 11.9998C19.3781 14.403 19.3688 14.6874 19.3256 15.6366C19.2856 16.514 19.1391 16.9906 19.0159 17.3078C18.8526 17.728 18.6575 18.0277 18.3428 18.3428C18.0277 18.6579 17.728 18.8529 17.3078 19.0158C16.9906 19.1391 16.514 19.2856 15.6366 19.3256C14.6878 19.3688 14.4031 19.3781 11.9998 19.3781C9.59662 19.3781 9.31189 19.3688 8.36303 19.3256C7.48563 19.2856 7.00906 19.1391 6.69182 19.0158C6.27169 18.8526 5.97196 18.6575 5.65687 18.3428C5.34177 18.0277 5.14671 17.728 4.98381 17.3078C4.86056 16.9906 4.71408 16.514 4.67407 15.6366C4.63084 14.6878 4.62156 14.403 4.62156 11.9998C4.62156 9.59661 4.63084 9.31224 4.67407 8.36302C4.71408 7.48562 4.86056 7.00905 4.98381 6.69181C5.14707 6.27169 5.34213 5.97196 5.65687 5.65686C5.97196 5.34177 6.27169 5.14671 6.69182 4.9838C7.00906 4.86055 7.48563 4.71408 8.36303 4.67407C9.31224 4.63084 9.59662 4.62155 11.9998 4.62155ZM11.9998 3C9.55553 3 9.24901 3.01036 8.28908 3.0543C7.3313 3.09789 6.67717 3.25007 6.1045 3.47264C5.51254 3.70271 5.0106 4.0103 4.51045 4.51081C4.0103 5.01096 3.70235 5.51289 3.47264 6.1045C3.25007 6.67717 3.09789 7.33129 3.0543 8.28907C3.01036 9.249 3 9.55552 3 11.9998C3 14.4441 3.01036 14.7506 3.0543 15.7106C3.09789 16.6684 3.25007 17.3225 3.47264 17.8951C3.70271 18.4871 4.0103 18.989 4.51081 19.4892C5.01132 19.9897 5.51289 20.2973 6.10486 20.5274C6.67717 20.7499 7.33165 20.9021 8.28944 20.9457C9.24937 20.9896 9.55589 21 12.0002 21C14.4445 21 14.751 20.9896 15.7109 20.9457C16.6687 20.9021 17.3232 20.7499 17.8955 20.5274C18.4875 20.2973 18.9894 19.9897 19.4896 19.4892C19.9901 18.9887 20.2977 18.4871 20.5277 17.8951C20.7503 17.3228 20.9025 16.6684 20.9461 15.7106C20.99 14.7506 21.0004 14.4441 21.0004 11.9998C21.0004 9.55552 20.99 9.249 20.9461 8.28907C20.9025 7.33129 20.7503 6.67681 20.5277 6.1045C20.2977 5.51253 19.9901 5.0106 19.4896 4.51045C18.9891 4.00994 18.4875 3.70235 17.8955 3.47228C17.3225 3.25007 16.6684 3.09789 15.7106 3.0543C14.7507 3.01036 14.4441 3 11.9998 3ZM12 7.37846C9.44741 7.37846 7.37857 9.44765 7.37857 11.9998C7.37857 14.552 9.44776 16.6212 12 16.6212C14.5521 16.6212 16.6213 14.552 16.6213 11.9998C16.6213 9.44765 14.5525 7.37846 12 7.37846ZM12 14.9997C10.343 14.9997 9.00013 13.6564 9.00013 11.9998C9.00013 10.3429 10.3434 9.00001 12 9.00001C13.6565 9.00001 14.9998 10.3433 14.9998 11.9998C14.9998 13.6568 13.6569 14.9997 12 14.9997ZM17.8841 7.19553C17.8841 7.79197 17.4005 8.27549 16.8041 8.27549C16.2077 8.27549 15.7241 7.79197 15.7241 7.19553C15.7241 6.59908 16.2077 6.11556 16.8041 6.11556C17.4005 6.11556 17.8841 6.59908 17.8841 7.19553Z" fill="#252526"/>
</svg>
