<svg width="24" height="24" viewBox="0 0 24 24" fill="none" xmlns="http://www.w3.org/2000/svg">
<path d="M12 15C11.7167 15 11.4793 14.904 11.288 14.712C11.096 14.5207 11 14.2833 11 14V3.82499L10.1 4.72499C9.91667 4.90832 9.68767 4.99999 9.413 4.99999C9.13767 4.99999 8.9 4.89999 8.7 4.69999C8.51667 4.49999 8.425 4.26232 8.425 3.98699C8.425 3.71232 8.51667 3.48332 8.7 3.29999L11.3 0.699988C11.3833 0.616655 11.4877 0.549988 11.613 0.499988C11.7377 0.449988 11.8667 0.424988 12 0.424988C12.1333 0.424988 12.2627 0.449988 12.388 0.499988C12.5127 0.549988 12.6167 0.616655 12.7 0.699988L15.3 3.29999C15.5 3.49999 15.6 3.74165 15.6 4.02499C15.6 4.30832 15.5 4.54165 15.3 4.72499C15.1 4.90832 14.8627 4.99999 14.588 4.99999C14.3127 4.99999 14.0833 4.90832 13.9 4.72499L13 3.82499V14C13 14.2833 12.9043 14.5207 12.713 14.712C12.521 14.904 12.2833 15 12 15ZM6 22C5.45 22 4.97933 21.8043 4.588 21.413C4.196 21.021 4 20.55 4 20V8.99999C4 8.44999 4.196 7.97899 4.588 7.58699C4.97933 7.19565 5.45 6.99999 6 6.99999H8C8.28333 6.99999 8.521 7.09565 8.713 7.28699C8.90433 7.47899 9 7.71665 9 7.99999C9 8.28332 8.90433 8.52065 8.713 8.71199C8.521 8.90399 8.28333 8.99999 8 8.99999H6V20H18V8.99999H16C15.7167 8.99999 15.4793 8.90399 15.288 8.71199C15.096 8.52065 15 8.28332 15 7.99999C15 7.71665 15.096 7.47899 15.288 7.28699C15.4793 7.09565 15.7167 6.99999 16 6.99999H18C18.55 6.99999 19.021 7.19565 19.413 7.58699C19.8043 7.97899 20 8.44999 20 8.99999V20C20 20.55 19.8043 21.021 19.413 21.413C19.021 21.8043 18.55 22 18 22H6Z" fill="#252526"/>
</svg>
