<svg width="24" height="24" viewBox="0 0 24 24" fill="none" xmlns="http://www.w3.org/2000/svg">
<path d="M15.45 13.4C15.35 14.2833 14.975 15.021 14.325 15.613C13.675 16.2043 12.9 16.5 12 16.5C11.8667 16.5 11.7333 16.4917 11.6 16.475C11.4667 16.4583 11.3333 16.4333 11.2 16.4C11.0667 16.3667 10.925 16.3667 10.775 16.4C10.625 16.4333 10.5 16.5 10.4 16.6C10.2167 16.7833 10.15 17.004 10.2 17.262C10.25 17.5207 10.3917 17.6917 10.625 17.775C10.8583 17.8583 11.0873 17.9167 11.312 17.95C11.5373 17.9833 11.7667 18 12 18C13.3167 18 14.45 17.5543 15.4 16.663C16.35 15.771 16.8667 14.6667 16.95 13.35L17.175 13.55C17.325 13.6833 17.5 13.75 17.7 13.75C17.9 13.75 18.0667 13.6833 18.2 13.55C18.35 13.4 18.4293 13.2207 18.438 13.012C18.446 12.804 18.375 12.625 18.225 12.475L16.95 11.2C16.7667 11.0167 16.5333 10.925 16.25 10.925C15.9667 10.925 15.7333 11.0167 15.55 11.2L14.275 12.475C14.125 12.625 14.05 12.8 14.05 13C14.05 13.2 14.125 13.375 14.275 13.525C14.425 13.675 14.6 13.75 14.8 13.75C15 13.75 15.175 13.675 15.325 13.525L15.45 13.4ZM7.05 12.65L6.825 12.45C6.675 12.3167 6.5 12.25 6.3 12.25C6.1 12.25 5.93333 12.3167 5.8 12.45C5.65 12.6 5.57067 12.779 5.562 12.987C5.554 13.1957 5.625 13.375 5.775 13.525L7.05 14.8C7.23333 14.9833 7.46667 15.075 7.75 15.075C8.03333 15.075 8.26667 14.9833 8.45 14.8L9.725 13.525C9.875 13.375 9.95 13.2 9.95 13C9.95 12.8 9.875 12.625 9.725 12.475C9.575 12.325 9.4 12.25 9.2 12.25C9 12.25 8.825 12.325 8.675 12.475L8.55 12.6C8.65 11.7167 9.025 10.979 9.675 10.387C10.325 9.79567 11.1 9.5 12 9.5C12.1333 9.5 12.2667 9.50833 12.4 9.525C12.5333 9.54167 12.6667 9.56667 12.8 9.6C12.9333 9.63333 13.075 9.63333 13.225 9.6C13.375 9.56667 13.5 9.5 13.6 9.4C13.7833 9.21667 13.85 8.996 13.8 8.738C13.75 8.47933 13.6083 8.30833 13.375 8.225C13.1417 8.14167 12.9127 8.08333 12.688 8.05C12.4627 8.01667 12.2333 8 12 8C10.6833 8 9.55 8.44567 8.6 9.337C7.65 10.229 7.13333 11.3333 7.05 12.65ZM4 21C3.45 21 2.97933 20.8043 2.588 20.413C2.196 20.021 2 19.55 2 19V7C2 6.45 2.196 5.97933 2.588 5.588C2.97933 5.196 3.45 5 4 5H7.15L8.4 3.65C8.58333 3.43333 8.804 3.27067 9.062 3.162C9.32067 3.054 9.59167 3 9.875 3H14.125C14.4083 3 14.6793 3.054 14.938 3.162C15.196 3.27067 15.4167 3.43333 15.6 3.65L16.85 5H20C20.55 5 21.021 5.196 21.413 5.588C21.8043 5.97933 22 6.45 22 7V19C22 19.55 21.8043 20.021 21.413 20.413C21.021 20.8043 20.55 21 20 21H4ZM20 19V7H4V19H20Z" fill="#252526"/>
</svg>
