<svg width="24" height="24" viewBox="0 0 24 24" fill="none" xmlns="http://www.w3.org/2000/svg">
<path fill-rule="evenodd" clip-rule="evenodd" d="M5.18312 3.75001C3.86273 3.75001 3 4.6181 3 5.75587C3 6.86976 3.83649 7.76178 5.13205 7.76178H5.15698C6.50267 7.76178 7.34028 6.86976 7.34028 5.75587C7.31531 4.6181 6.50276 3.75001 5.18312 3.75001ZM7.08718 9.34713H3.22783V20.9559H7.08718V9.34713ZM13.0799 10.9908C13.5934 10.2001 14.5103 9.07426 16.5575 9.07426C19.0962 9.07426 21 10.733 21 14.2988V20.9559H17.1416V14.7448C17.1416 13.1849 16.5824 12.12 15.1869 12.12C14.1209 12.12 13.4856 12.8378 13.2071 13.5309C13.1048 13.7789 13.0799 14.1258 13.0799 14.4728V20.9559H9.22156C9.22156 20.9559 9.27273 10.4361 9.22156 9.34724H13.0799V10.9908Z" fill="#252526"/>
</svg>
