<svg width="24" height="24" viewBox="0 0 24 24" fill="none" xmlns="http://www.w3.org/2000/svg">
<path d="M4.92894 12C3.95078 11.0218 3.46193 9.84332 3.4624 8.46447C3.46193 7.08561 3.95078 5.9071 4.92894 4.92893C5.90711 3.95077 7.08585 3.46169 8.46518 3.46169C9.84357 3.46169 11.0218 3.95077 12 4.92893L14.1213 7.05025C14.3217 7.2506 14.4221 7.4863 14.4226 7.75736C14.4221 8.02842 14.3217 8.26412 14.1213 8.46447C13.921 8.66481 13.6855 8.76499 13.4149 8.76499C13.1434 8.76499 12.9075 8.66481 12.7071 8.46447L10.5858 6.34315C9.99654 5.75389 9.28943 5.45926 8.46448 5.45926C7.63952 5.45926 6.93241 5.75389 6.34316 6.34315C5.7539 6.9324 5.45927 7.63951 5.45927 8.46447C5.45927 9.28942 5.7539 9.99653 6.34316 10.5858L8.46448 12.7071C8.66482 12.9075 8.76523 13.1432 8.7657 13.4142C8.76523 13.6853 8.66482 13.921 8.46448 14.1213C8.26413 14.3217 8.02866 14.4218 7.75808 14.4218C7.48655 14.4218 7.25061 14.3217 7.05026 14.1213L4.92894 12ZM9.17158 10.5858C8.97124 10.3854 8.8713 10.1497 8.87177 9.87868C8.8713 9.60762 8.97124 9.37192 9.17158 9.17157C9.37193 8.97123 9.60787 8.87105 9.8794 8.87105C10.15 8.87105 10.3854 8.97123 10.5858 9.17157L14.8284 13.4142C15.0288 13.6146 15.1292 13.8503 15.1297 14.1213C15.1292 14.3924 15.0288 14.6281 14.8284 14.8284C14.6281 15.0288 14.3926 15.1289 14.122 15.1289C13.8505 15.1289 13.6146 15.0288 13.4142 14.8284L9.17158 10.5858ZM9.87869 16.9497C9.67834 16.7494 9.5784 16.5137 9.57888 16.2426C9.5784 15.9716 9.67834 15.7359 9.87869 15.5355C10.079 15.3352 10.315 15.235 10.5865 15.235C10.8571 15.235 11.0926 15.3352 11.2929 15.5355L13.4142 17.6569C14.0035 18.2461 14.7106 18.5407 15.5355 18.5407C16.3605 18.5407 17.0676 18.2461 17.6569 17.6569C18.2461 17.0676 18.5407 16.3605 18.5407 15.5355C18.5407 14.7106 18.2461 14.0035 17.6569 13.4142L15.5355 11.2929C15.3352 11.0925 15.2353 10.8568 15.2357 10.5858C15.2353 10.3147 15.3352 10.079 15.5355 9.87868C15.7359 9.67833 15.9718 9.57816 16.2434 9.57816C16.5139 9.57816 16.7494 9.67833 16.9498 9.87868L19.0711 12C20.0492 12.9782 20.5386 14.1567 20.539 15.5355C20.5386 16.9144 20.0492 18.0929 19.0711 19.0711C18.0929 20.0492 16.9146 20.5383 15.5363 20.5383C14.1569 20.5383 12.9782 20.0492 12 19.0711L9.87869 16.9497Z" fill="#252526"/>
</svg>
