<svg width="24" height="24" viewBox="0 0 24 24" fill="none" xmlns="http://www.w3.org/2000/svg">
<path d="M8.24995 16.275C8.43328 16.0583 8.52495 15.8123 8.52495 15.537C8.52495 15.2623 8.43328 15.0333 8.24995 14.85L6.39995 13H13.575C13.8583 13 14.0956 12.904 14.287 12.712C14.479 12.5207 14.575 12.2833 14.575 12C14.575 11.7167 14.479 11.479 14.287 11.287C14.0956 11.0957 13.8583 11 13.575 11H6.39995L8.24995 9.15C8.44995 8.95 8.54995 8.71267 8.54995 8.438C8.54995 8.16267 8.44995 7.925 8.24995 7.725C8.06662 7.525 7.83728 7.425 7.56195 7.425C7.28728 7.425 7.05828 7.51667 6.87495 7.7L3.27495 11.3C3.17495 11.4 3.10395 11.5083 3.06195 11.625C3.02062 11.7417 2.99995 11.8667 2.99995 12C2.99995 12.1333 3.02062 12.2583 3.06195 12.375C3.10395 12.4917 3.17495 12.6 3.27495 12.7L6.87495 16.3C7.09162 16.5167 7.32895 16.6123 7.58695 16.587C7.84562 16.5623 8.06662 16.4583 8.24995 16.275ZM18.575 21C19.125 21 19.596 20.8043 19.988 20.413C20.3793 20.021 20.575 19.55 20.575 19V5C20.575 4.45 20.3793 3.979 19.988 3.587C19.596 3.19567 19.125 3 18.575 3H12.575C12.2916 3 12.054 3.09567 11.862 3.287C11.6706 3.479 11.575 3.71667 11.575 4C11.575 4.28333 11.6706 4.52067 11.862 4.712C12.054 4.904 12.2916 5 12.575 5H18.575V19H12.575C12.2916 19 12.054 19.096 11.862 19.288C11.6706 19.4793 11.575 19.7167 11.575 20C11.575 20.2833 11.6706 20.5207 11.862 20.712C12.054 20.904 12.2916 21 12.575 21H18.575Z" fill="#252526"/>
</svg>
