<svg width="24" height="24" viewBox="0 0 24 24" fill="none" xmlns="http://www.w3.org/2000/svg">
<path d="M19.575 18C19.8583 18 20.0956 17.904 20.287 17.712C20.479 17.5207 20.575 17.2833 20.575 17C20.575 16.7167 20.479 16.4793 20.287 16.288C20.0956 16.096 19.8583 16 19.575 16H8.57495C8.29162 16 8.05395 16.096 7.86195 16.288C7.67062 16.4793 7.57495 16.7167 7.57495 17C7.57495 17.2833 7.67062 17.5207 7.86195 17.712C8.05395 17.904 8.29162 18 8.57495 18H19.575ZM19.575 13C19.8583 13 20.0956 12.904 20.287 12.712C20.479 12.5207 20.575 12.2833 20.575 12C20.575 11.7167 20.479 11.479 20.287 11.287C20.0956 11.0957 19.8583 11 19.575 11H11.575C11.2916 11 11.054 11.0957 10.862 11.287C10.6706 11.479 10.575 11.7167 10.575 12C10.575 12.2833 10.6706 12.5207 10.862 12.712C11.054 12.904 11.2916 13 11.575 13H19.575ZM19.575 8C19.8583 8 20.0956 7.90433 20.287 7.713C20.479 7.521 20.575 7.28333 20.575 7C20.575 6.71667 20.479 6.479 20.287 6.287C20.0956 6.09567 19.8583 6 19.575 6H8.57495C8.29162 6 8.05395 6.09567 7.86195 6.287C7.67062 6.479 7.57495 6.71667 7.57495 7C7.57495 7.28333 7.67062 7.521 7.86195 7.713C8.05395 7.90433 8.29162 8 8.57495 8H19.575ZM6.17495 12L3.27495 14.9C3.09162 15.0833 2.99995 15.3167 2.99995 15.6C2.99995 15.8833 3.09162 16.1167 3.27495 16.3C3.45828 16.4833 3.69162 16.575 3.97495 16.575C4.25828 16.575 4.49162 16.4833 4.67495 16.3L8.27495 12.7C8.47495 12.5 8.57495 12.2667 8.57495 12C8.57495 11.7333 8.47495 11.5 8.27495 11.3L4.67495 7.7C4.49162 7.51667 4.25828 7.425 3.97495 7.425C3.69162 7.425 3.45828 7.51667 3.27495 7.7C3.09162 7.88333 2.99995 8.11667 2.99995 8.4C2.99995 8.68333 3.09162 8.91667 3.27495 9.1L6.17495 12Z" fill="#252526"/>
</svg>
