<svg width="24" height="24" viewBox="0 0 24 24" fill="none" xmlns="http://www.w3.org/2000/svg">
<path d="M17.75 14.95L16.3 13.5C16.45 13.25 16.5793 12.9917 16.688 12.725C16.796 12.4583 16.875 12.1833 16.925 11.9C16.975 11.65 17.096 11.4373 17.288 11.262C17.4793 11.0873 17.6916 11 17.9249 11C18.2416 11 18.5 11.1083 18.7 11.325C18.9 11.5417 18.9749 11.7917 18.9249 12.075C18.8416 12.6083 18.7 13.1123 18.5 13.587C18.2999 14.0623 18.05 14.5167 17.75 14.95ZM14.8 11.95L13 10.15V5C13 4.71667 12.9043 4.479 12.713 4.287C12.521 4.09567 12.2833 4 12 4C11.7166 4 11.4793 4.09567 11.288 4.287C11.096 4.479 11 4.71667 11 5V8.15L8.99995 6.15V5C8.99995 4.16667 9.29162 3.45833 9.87495 2.875C10.4583 2.29167 11.1666 2 12 2C12.8333 2 13.5416 2.29167 14.125 2.875C14.7083 3.45833 15 4.16667 15 5V11C15 11.1833 14.9793 11.35 14.938 11.5C14.896 11.65 14.85 11.8 14.8 11.95ZM19.1 21.9L2.09995 4.9C1.91662 4.71667 1.82495 4.48333 1.82495 4.2C1.82495 3.91667 1.91662 3.68333 2.09995 3.5C2.28328 3.31667 2.51662 3.225 2.79995 3.225C3.08328 3.225 3.31662 3.31667 3.49995 3.5L20.5 20.5C20.6833 20.6833 20.775 20.9167 20.775 21.2C20.775 21.4833 20.6833 21.7167 20.5 21.9C20.3166 22.0833 20.0833 22.175 19.7999 22.175C19.5166 22.175 19.2833 22.0833 19.1 21.9ZM11 20V17.925C9.44995 17.7083 8.13329 17.0583 7.04995 15.975C5.96662 14.8917 5.30828 13.5917 5.07495 12.075C5.02495 11.7917 5.09995 11.5417 5.29995 11.325C5.49995 11.1083 5.76662 11 6.09995 11C6.33328 11 6.54162 11.0873 6.72495 11.262C6.90828 11.4373 7.02495 11.65 7.07495 11.9C7.29162 13.0667 7.85828 14.0417 8.77495 14.825C9.69162 15.6083 10.7666 16 12 16C12.5666 16 13.1043 15.9127 13.613 15.738C14.121 15.5627 14.5833 15.3167 15 15L16.425 16.425C15.9416 16.8083 15.4126 17.1333 14.838 17.4C14.2626 17.6667 13.65 17.8417 13 17.925V20C13 20.2833 12.9043 20.5207 12.713 20.712C12.521 20.904 12.2833 21 12 21C11.7166 21 11.4793 20.904 11.288 20.712C11.096 20.5207 11 20.2833 11 20Z" fill="#252526"/>
</svg>
