<svg width="24" height="24" viewBox="0 0 24 24" fill="none" xmlns="http://www.w3.org/2000/svg">
<path d="M9.5 11L8.55 13.05L6.5 14L8.55 14.95L9.5 17L10.45 14.95L12.5 14L10.45 13.05L9.5 11ZM15.5 11L14.85 12.35L13.5 13L14.85 13.65L15.5 15L16.15 13.65L17.5 13L16.15 12.35L15.5 11ZM4 4L6 8H9L7 4H9L11 8H14L12 4H14L16 8H19L17 4H20C20.55 4 21.021 4.196 21.413 4.588C21.8043 4.97933 22 5.45 22 6V18C22 18.55 21.8043 19.021 21.413 19.413C21.021 19.8043 20.55 20 20 20H4C3.45 20 2.97933 19.8043 2.588 19.413C2.196 19.021 2 18.55 2 18V6C2 5.45 2.196 4.97933 2.588 4.588C2.97933 4.196 3.45 4 4 4ZM4 10V18H20V10H4ZM4 10V18V10Z" fill="#252526"/>
</svg>
