<svg width="24" height="24" viewBox="0 0 24 24" fill="none" xmlns="http://www.w3.org/2000/svg">
<path d="M19 8.30001C18.9167 8.30001 18.8294 8.27501 18.7381 8.22501C18.6461 8.17501 18.5834 8.10001 18.55 8.00001L17.75 6.25001L16 5.45001C15.9 5.41668 15.825 5.35401 15.775 5.26201C15.725 5.17068 15.7 5.08335 15.7 5.00001C15.7 4.91668 15.725 4.82901 15.775 4.73701C15.825 4.64568 15.9 4.58335 16 4.55001L17.75 3.75001L18.55 2.00001C18.5834 1.90001 18.6461 1.82501 18.7381 1.77501C18.8294 1.72501 18.9167 1.70001 19 1.70001C19.0834 1.70001 19.1711 1.72501 19.2631 1.77501C19.3544 1.82501 19.4167 1.90001 19.4501 2.00001L20.25 3.75001L22 4.55001C22.1 4.58335 22.1751 4.64568 22.225 4.73701C22.275 4.82901 22.3 4.91668 22.3 5.00001C22.3 5.08335 22.275 5.17068 22.225 5.26201C22.1751 5.35401 22.1 5.41668 22 5.45001L20.25 6.25001L19.4501 8.00001C19.4167 8.10001 19.3544 8.17501 19.2631 8.22501C19.1711 8.27501 19.0834 8.30001 19 8.30001ZM19 22.3C18.9167 22.3 18.8294 22.275 18.7381 22.225C18.6461 22.175 18.5834 22.1 18.55 22L17.75 20.25L16 19.45C15.9 19.4167 15.825 19.354 15.775 19.262C15.725 19.1707 15.7 19.0833 15.7 19C15.7 18.9167 15.725 18.8293 15.775 18.738C15.825 18.646 15.9 18.5833 16 18.55L17.75 17.75L18.55 16C18.5834 15.9 18.6461 15.825 18.7381 15.775C18.8294 15.725 18.9167 15.7 19 15.7C19.0834 15.7 19.1711 15.725 19.2631 15.775C19.3544 15.825 19.4167 15.9 19.4501 16L20.25 17.75L22 18.55C22.1 18.5833 22.1751 18.646 22.225 18.738C22.275 18.8293 22.3 18.9167 22.3 19C22.3 19.0833 22.275 19.1707 22.225 19.262C22.1751 19.354 22.1 19.4167 22 19.45L20.25 20.25L19.4501 22C19.4167 22.1 19.3544 22.175 19.2631 22.225C19.1711 22.275 19.0834 22.3 19 22.3ZM9.00005 18.575C8.81672 18.575 8.64172 18.525 8.47505 18.425C8.30838 18.325 8.18338 18.1833 8.10005 18L6.50005 14.5L3.00005 12.9C2.81672 12.8167 2.67505 12.6917 2.57505 12.525C2.47505 12.3583 2.42505 12.1833 2.42505 12C2.42505 11.8167 2.47505 11.6417 2.57505 11.475C2.67505 11.3083 2.81672 11.1833 3.00005 11.1L6.50005 9.50001L8.10005 6.00001C8.18338 5.81668 8.30838 5.67501 8.47505 5.57501C8.64172 5.47501 8.81672 5.42501 9.00005 5.42501C9.18338 5.42501 9.35838 5.47501 9.52505 5.57501C9.69171 5.67501 9.81671 5.81668 9.90005 6.00001L11.5 9.50001L15 11.1C15.1834 11.1833 15.325 11.3083 15.425 11.475C15.525 11.6417 15.575 11.8167 15.575 12C15.575 12.1833 15.525 12.3583 15.425 12.525C15.325 12.6917 15.1834 12.8167 15 12.9L11.5 14.5L9.90005 18C9.81671 18.1833 9.69171 18.325 9.52505 18.425C9.35838 18.525 9.18338 18.575 9.00005 18.575ZM9.00005 15.15L10 13L12.15 12L10 11L9.00005 8.85001L8.00005 11L5.85005 12L8.00005 13L9.00005 15.15Z" fill="#252526"/>
</svg>
