<svg width="24" height="24" viewBox="0 0 24 24" fill="none" xmlns="http://www.w3.org/2000/svg">
<path d="M12 17H18C18.2833 17 18.5207 16.904 18.712 16.712C18.904 16.5207 19 16.2833 19 16V12C19 11.7167 18.904 11.479 18.712 11.287C18.5207 11.0957 18.2833 11 18 11H12C11.7167 11 11.4793 11.0957 11.288 11.287C11.096 11.479 11 11.7167 11 12V16C11 16.2833 11.096 16.5207 11.288 16.712C11.4793 16.904 11.7167 17 12 17ZM4 20C3.45 20 2.97933 19.8043 2.588 19.413C2.196 19.021 2 18.55 2 18V6C2 5.45 2.196 4.97933 2.588 4.588C2.97933 4.196 3.45 4 4 4H20C20.55 4 21.021 4.196 21.413 4.588C21.8043 4.97933 22 5.45 22 6V18C22 18.55 21.8043 19.021 21.413 19.413C21.021 19.8043 20.55 20 20 20H4ZM4 18H20V6H4V18Z" fill="#252526"/>
</svg>
