<svg width="24" height="24" viewBox="0 0 24 24" fill="none" xmlns="http://www.w3.org/2000/svg">
<path fill-rule="evenodd" clip-rule="evenodd" d="M15.6028 9.34255L15.606 9.33936L15.662 9.37044L18.702 11.0987C19.5724 11.5899 19.5724 12.3981 18.702 12.8954L15.662 14.6237L15.606 14.661L15.6024 14.6574L6.58535 19.7835C6.39964 19.9299 6.16839 20.0064 5.93202 19.9996C5.7164 19.9934 5.50902 19.9182 5.33994 19.786L5.3357 19.7902L5.29218 19.7467C5.08831 19.5042 4.98586 19.1925 5.0062 18.8763V5.12458C4.9881 4.80995 5.08943 4.50013 5.28984 4.25704L5.28656 4.25376C5.29917 4.24258 5.31204 4.23174 5.32514 4.22125L5.3357 4.21069L5.33694 4.21194C5.50553 4.08102 5.71186 4.00661 5.92635 4.00042C6.16272 3.9936 6.39396 4.07007 6.57967 4.21646L15.6028 9.34255ZM13.0384 11.9994L13.0385 11.9994V12L13.0384 12.0001V11.9994Z" fill="#252526"/>
</svg>
