<svg width="24" height="24" viewBox="0 0 24 24" fill="none" xmlns="http://www.w3.org/2000/svg">
<path fill-rule="evenodd" clip-rule="evenodd" d="M2 19.575V4C2 3.45 2.196 2.979 2.588 2.587C2.97933 2.19567 3.45 2 4 2H20C20.55 2 21.021 2.19567 21.413 2.587C21.8043 2.979 22 3.45 22 4V16C22 16.55 21.8043 17.021 21.413 17.413C21.021 17.8043 20.55 18 20 18H6L3.7 20.3C3.38333 20.6167 3.02067 20.6873 2.612 20.512C2.204 20.3373 2 20.025 2 19.575ZM12.1356 11.8C12.3189 11.8 12.4896 11.729 12.6476 11.587C12.8062 11.4457 12.9022 11.2667 12.9356 11.05C12.9689 10.8333 13.0482 10.6417 13.1736 10.475C13.2982 10.3083 13.4856 10.1 13.7356 9.85C14.2356 9.35 14.5689 8.94567 14.7356 8.637C14.9022 8.329 14.9856 7.96667 14.9856 7.55C14.9856 6.8 14.7229 6.18767 14.1976 5.713C13.6729 5.23767 12.9856 5 12.1356 5C11.5856 5 11.0899 5.129 10.6486 5.387C10.2066 5.64567 9.85222 6 9.58555 6.45C9.48555 6.61667 9.47322 6.79167 9.54855 6.975C9.62322 7.15833 9.76055 7.29167 9.96055 7.375C10.1272 7.44167 10.3022 7.44167 10.4856 7.375C10.6689 7.30833 10.8272 7.18333 10.9606 7C11.1106 6.8 11.2856 6.65 11.4856 6.55C11.6856 6.45 11.9022 6.4 12.1356 6.4C12.5356 6.4 12.8606 6.51233 13.1106 6.737C13.3606 6.96233 13.4856 7.26667 13.4856 7.65C13.4856 7.88333 13.4189 8.104 13.2856 8.312C13.1522 8.52067 12.9189 8.78333 12.5856 9.1C12.1356 9.48333 11.8356 9.79167 11.6856 10.025C11.5356 10.2583 11.4439 10.6 11.4106 11.05C11.3939 11.25 11.4566 11.425 11.5986 11.575C11.7399 11.725 11.9189 11.8 12.1356 11.8ZM12.1356 15C12.4189 15 12.6649 14.896 12.8736 14.688C13.0816 14.4793 13.1856 14.2333 13.1856 13.95C13.1856 13.6667 13.0816 13.4207 12.8736 13.212C12.6649 13.004 12.4189 12.9 12.1356 12.9C11.8522 12.9 11.6066 13.004 11.3986 13.212C11.1899 13.4207 11.0856 13.6667 11.0856 13.95C11.0856 14.2333 11.1899 14.4793 11.3986 14.688C11.6066 14.896 11.8522 15 12.1356 15Z" fill="#252526"/>
</svg>
