<svg width="48" height="48" viewBox="0 0 48 48" fill="none" xmlns="http://www.w3.org/2000/svg">
<path fill-rule="evenodd" clip-rule="evenodd" d="M20.8336 19.6637C20.5785 20.5077 19.8009 21.085 18.9192 21.085H10.0121L17.2817 26.2775C17.9836 26.7789 18.285 27.6737 18.0294 28.4975L15.1715 37.7108L22.5502 32.1118C23.266 31.5686 24.2561 31.5695 24.9709 32.1138L32.3469 37.7308L29.489 28.5175C29.2334 27.6937 29.5348 26.7989 30.2367 26.2975L37.5063 21.105H28.5992C27.7185 21.105 26.9415 20.5289 26.6855 19.6862L23.7492 10.0184L20.8336 19.6637ZM25.6592 9.425L28.5992 19.105H37.5192C39.4592 19.105 40.2592 21.585 38.6792 22.725L31.3992 27.925L34.2592 37.145C34.8392 39.005 32.6792 40.505 31.1392 39.325L23.7592 33.705L16.3792 39.305C14.8392 40.485 12.6792 38.985 13.2592 37.125L16.1192 27.905L8.8392 22.705C7.25919 21.585 8.05919 19.085 9.99919 19.085H18.9192L21.8392 9.425C22.3992 7.525 25.0792 7.525 25.6592 9.425Z" fill="#211F30"/>
</svg>
