<svg width="24" height="24" viewBox="0 0 24 24" fill="none" xmlns="http://www.w3.org/2000/svg">
<path d="M17 17V14C17 13.7167 17.096 13.479 17.288 13.287C17.4794 13.0957 17.7167 13 18 13C18.2834 13 18.5207 13.0917 18.712 13.275C18.904 13.4583 19 13.6917 19 13.975V18C19 18.2833 18.904 18.5207 18.712 18.712C18.5207 18.904 18.2834 19 18 19H6.85005L7.67505 19.825C7.87505 20.025 7.97938 20.2667 7.98805 20.55C7.99605 20.8333 7.90005 21.075 7.70005 21.275C7.50005 21.475 7.26272 21.575 6.98805 21.575C6.71272 21.575 6.48338 21.4833 6.30005 21.3L3.70005 18.7C3.51672 18.5167 3.42505 18.2833 3.42505 18C3.42505 17.7167 3.51672 17.4833 3.70005 17.3L6.27505 14.725C6.47505 14.525 6.71272 14.425 6.98805 14.425C7.26272 14.425 7.50005 14.525 7.70005 14.725C7.90005 14.925 8.00005 15.1627 8.00005 15.438C8.00005 15.7127 7.90005 15.95 7.70005 16.15L6.85005 17H17ZM7.00005 6.99999V9.99999C7.00005 10.2833 6.90438 10.5207 6.71305 10.712C6.52105 10.904 6.28338 11 6.00005 11C5.71672 11 5.47905 10.9083 5.28705 10.725C5.09572 10.5417 5.00005 10.3083 5.00005 10.025V5.99999C5.00005 5.71665 5.09572 5.47899 5.28705 5.28699C5.47905 5.09565 5.71672 4.99999 6.00005 4.99999H17.15L16.325 4.17499C16.125 3.97499 16.021 3.73332 16.013 3.44999C16.0044 3.16665 16.1 2.92499 16.3 2.72499C16.5 2.52499 16.7377 2.42499 17.013 2.42499C17.2877 2.42499 17.5167 2.51665 17.7 2.69999L20.3 5.29999C20.4834 5.48332 20.5751 5.71665 20.5751 5.99999C20.5751 6.28332 20.4834 6.51665 20.3 6.69999L17.725 9.27499C17.525 9.47499 17.2877 9.57499 17.013 9.57499C16.7377 9.57499 16.5 9.47499 16.3 9.27499C16.1 9.07499 16 8.83732 16 8.56199C16 8.28732 16.1 8.04999 16.3 7.84999L17.15 6.99999H7.00005Z" fill="#252526"/>
</svg>
