<svg width="24" height="24" viewBox="0 0 24 24" fill="none" xmlns="http://www.w3.org/2000/svg">
<path fill-rule="evenodd" clip-rule="evenodd" d="M5.96312 19.7C7.65445 21.2333 9.66679 22 12.0001 22C13.2501 22 14.4211 21.7627 15.5131 21.288C16.6045 20.8127 17.5545 20.1707 18.3631 19.362C19.1711 18.554 19.8128 17.604 20.2881 16.512C20.7628 15.4207 21.0001 14.25 21.0001 13C21.0001 11.75 20.7628 10.579 20.2881 9.48699C19.8128 8.39565 19.1711 7.44565 18.3631 6.63699C17.5545 5.82899 16.6045 5.18765 15.5131 4.71299C14.4211 4.23765 13.2501 3.99999 12.0001 3.99999H11.8501L12.7251 3.12499C12.9085 2.94165 13.0001 2.70832 13.0001 2.42499C13.0001 2.14165 12.9085 1.89999 12.7251 1.69999C12.5251 1.51665 12.2835 1.42499 12.0001 1.42499C11.7168 1.42499 11.4835 1.51665 11.3001 1.69999L8.70012 4.29999C8.60012 4.39999 8.52945 4.50832 8.48812 4.62499C8.44612 4.74165 8.42512 4.86665 8.42512 4.99999C8.42512 5.13332 8.44612 5.25832 8.48812 5.37499C8.52945 5.49165 8.60012 5.59999 8.70012 5.69999L11.3001 8.27499C11.4835 8.47499 11.7168 8.57499 12.0001 8.57499C12.2835 8.57499 12.5251 8.47499 12.7251 8.27499C12.9085 8.09165 13.0001 7.85832 13.0001 7.57499C13.0001 7.29165 12.9085 7.05832 12.7251 6.87499L11.8501 5.99999H12.0001C13.9501 5.99999 15.6041 6.67899 16.9621 8.03699C18.3208 9.39565 19.0001 11.05 19.0001 13C19.0001 14.95 18.3208 16.604 16.9621 17.962C15.6041 19.3207 13.9501 20 12.0001 20C10.2168 20 8.67512 19.4293 7.37512 18.288C6.07512 17.146 5.30845 15.7167 5.07512 14C5.04179 13.7167 4.92112 13.479 4.71312 13.287C4.50445 13.0957 4.26679 13 4.00012 13C3.71679 13 3.47945 13.1 3.28812 13.3C3.09612 13.5 3.01679 13.7333 3.05012 14C3.30012 16.2667 4.27112 18.1667 5.96312 19.7ZM9.56011 13.49H10.0101C10.2201 13.49 10.3801 13.44 10.4901 13.33C10.6001 13.22 10.6501 13.08 10.6501 12.9C10.6501 12.82 10.6401 12.75 10.6101 12.68C10.5801 12.61 10.5501 12.56 10.5001 12.51C10.4501 12.46 10.3901 12.42 10.3201 12.4C10.2501 12.38 10.1601 12.36 10.0701 12.36C9.99011 12.36 9.92011 12.37 9.85011 12.39C9.78011 12.41 9.72011 12.44 9.67011 12.49C9.62011 12.54 9.58011 12.58 9.55011 12.64C9.52011 12.7 9.50011 12.77 9.50011 12.84H8.65011C8.65011 12.66 8.69011 12.5 8.76011 12.36C8.83011 12.22 8.93011 12.09 9.06011 11.99C9.19011 11.89 9.33011 11.81 9.50011 11.76C9.67011 11.71 9.85011 11.68 10.0401 11.68C10.2501 11.68 10.4501 11.71 10.6301 11.76C10.8101 11.81 10.9601 11.89 11.0901 11.99C11.2201 12.09 11.3201 12.22 11.3901 12.37C11.4601 12.52 11.5001 12.7 11.5001 12.9C11.5001 12.99 11.4901 13.08 11.4601 13.17C11.4301 13.26 11.3901 13.34 11.3301 13.42C11.2701 13.5 11.2101 13.57 11.1301 13.64C11.0501 13.71 10.9601 13.76 10.8501 13.81C11.0901 13.9 11.2701 14.02 11.3901 14.2C11.5101 14.38 11.5701 14.58 11.5701 14.81C11.5701 15.01 11.5301 15.19 11.4501 15.34C11.3701 15.49 11.2701 15.63 11.1301 15.73C10.9901 15.83 10.8401 15.92 10.6501 15.97C10.4601 16.02 10.2701 16.05 10.0501 16.05C9.87011 16.05 9.69011 16.03 9.52011 15.98C9.35011 15.93 9.19011 15.86 9.06011 15.75C8.93011 15.64 8.81011 15.52 8.73011 15.37C8.65011 15.22 8.61011 15.03 8.61011 14.82H9.46011C9.46011 14.9 9.48011 14.97 9.51011 15.04C9.54011 15.11 9.58011 15.16 9.64011 15.21C9.70011 15.26 9.76011 15.3 9.84011 15.32C9.92011 15.34 10.0001 15.36 10.0901 15.36C10.1901 15.36 10.2801 15.35 10.3601 15.32C10.4401 15.29 10.5101 15.25 10.5601 15.2C10.6101 15.15 10.6601 15.09 10.6901 15.02C10.7201 14.95 10.7301 14.87 10.7301 14.78C10.7301 14.67 10.7101 14.57 10.6801 14.49C10.6501 14.41 10.6001 14.34 10.5401 14.29C10.4801 14.24 10.4101 14.2 10.3201 14.18C10.2301 14.16 10.1401 14.14 10.0301 14.14H9.56011V13.49ZM15.3002 14.24C15.3002 14.56 15.2702 14.84 15.2002 15.06C15.1302 15.28 15.0302 15.48 14.9102 15.63C14.7902 15.78 14.6302 15.89 14.4602 15.96C14.2902 16.03 14.0902 16.06 13.8702 16.06C13.6502 16.06 13.4602 16.03 13.2802 15.96C13.1002 15.89 12.9502 15.78 12.8202 15.63C12.6902 15.48 12.5902 15.29 12.5202 15.06C12.4502 14.83 12.4102 14.56 12.4102 14.24V13.5C12.4102 13.18 12.4402 12.9 12.5102 12.68C12.5802 12.46 12.6802 12.26 12.8002 12.11C12.9202 11.96 13.0802 11.85 13.2502 11.78C13.4202 11.71 13.6202 11.68 13.8402 11.68C14.0602 11.68 14.2502 11.71 14.4302 11.78C14.6102 11.85 14.7602 11.96 14.8902 12.11C15.0202 12.26 15.1202 12.45 15.1902 12.68C15.2602 12.91 15.3002 13.18 15.3002 13.5V14.24ZM14.4502 13.38C14.4502 13.19 14.4402 13.03 14.4102 12.9C14.3802 12.77 14.3402 12.67 14.2902 12.59C14.2402 12.51 14.1802 12.45 14.1002 12.42C14.0202 12.39 13.9402 12.37 13.8502 12.37C13.7602 12.37 13.6702 12.39 13.6002 12.42C13.5302 12.45 13.4602 12.51 13.4102 12.59C13.3602 12.67 13.3202 12.77 13.2902 12.9C13.2602 13.03 13.2502 13.19 13.2502 13.38V14.35C13.2502 14.54 13.2602 14.7 13.2902 14.83C13.3202 14.96 13.3602 15.07 13.4102 15.15C13.4602 15.23 13.5202 15.29 13.6002 15.32C13.6802 15.35 13.7602 15.37 13.8502 15.37C13.9402 15.37 14.0302 15.35 14.1002 15.32C14.1702 15.29 14.2402 15.23 14.2902 15.15C14.3402 15.07 14.3802 14.96 14.4002 14.83C14.4302 14.7 14.4402 14.54 14.4402 14.35V13.38H14.4502Z" fill="#252526"/>
</svg>
