<svg width="24" height="24" viewBox="0 0 24 24" fill="none" xmlns="http://www.w3.org/2000/svg">
<path fill-rule="evenodd" clip-rule="evenodd" d="M5.96312 19.7C7.65445 21.2333 9.66679 22 12.0001 22C13.2501 22 14.4211 21.7627 15.5131 21.288C16.6045 20.8127 17.5545 20.1707 18.3631 19.362C19.1711 18.554 19.8128 17.604 20.2881 16.512C20.7628 15.4207 21.0001 14.25 21.0001 13C21.0001 11.75 20.7628 10.579 20.2881 9.48699C19.8128 8.39565 19.1711 7.44565 18.3631 6.63699C17.5545 5.82899 16.6045 5.18765 15.5131 4.71299C14.4211 4.23765 13.2501 3.99999 12.0001 3.99999H11.8501L12.7251 3.12499C12.9085 2.94165 13.0001 2.70832 13.0001 2.42499C13.0001 2.14165 12.9085 1.89999 12.7251 1.69999C12.5251 1.51665 12.2835 1.42499 12.0001 1.42499C11.7168 1.42499 11.4835 1.51665 11.3001 1.69999L8.70012 4.29999C8.60012 4.39999 8.52945 4.50832 8.48812 4.62499C8.44612 4.74165 8.42512 4.86665 8.42512 4.99999C8.42512 5.13332 8.44612 5.25832 8.48812 5.37499C8.52945 5.49165 8.60012 5.59999 8.70012 5.69999L11.3001 8.27499C11.4835 8.47499 11.7168 8.57499 12.0001 8.57499C12.2835 8.57499 12.5251 8.47499 12.7251 8.27499C12.9085 8.09165 13.0001 7.85832 13.0001 7.57499C13.0001 7.29165 12.9085 7.05832 12.7251 6.87499L11.8501 5.99999H12.0001C13.9501 5.99999 15.6041 6.67899 16.9621 8.03699C18.3208 9.39565 19.0001 11.05 19.0001 13C19.0001 14.95 18.3208 16.604 16.9621 17.962C15.6041 19.3207 13.9501 20 12.0001 20C10.2168 20 8.67512 19.4293 7.37512 18.288C6.07512 17.146 5.30845 15.7167 5.07512 14C5.04179 13.7167 4.92112 13.479 4.71312 13.287C4.50445 13.0957 4.26679 13 4.00012 13C3.71679 13 3.47945 13.1 3.28812 13.3C3.09612 13.5 3.01679 13.7333 3.05012 14C3.30012 16.2667 4.27112 18.1667 5.96312 19.7ZM15.17 14.24C15.17 14.56 15.14 14.84 15.07 15.06C15 15.28 14.9 15.48 14.78 15.63C14.66 15.78 14.5 15.89 14.33 15.96C14.16 16.03 13.96 16.06 13.74 16.06C13.52 16.06 13.33 16.03 13.15 15.96C12.97 15.89 12.82 15.78 12.69 15.63C12.56 15.48 12.46 15.29 12.39 15.06C12.32 14.83 12.28 14.56 12.28 14.24V13.5C12.28 13.18 12.31 12.9 12.38 12.68C12.45 12.46 12.55 12.26 12.67 12.11C12.79 11.96 12.95 11.85 13.12 11.78C13.29 11.71 13.49 11.68 13.71 11.68C13.93 11.68 14.12 11.71 14.3 11.78C14.48 11.85 14.63 11.96 14.76 12.11C14.89 12.26 14.99 12.45 15.06 12.68C15.13 12.91 15.17 13.18 15.17 13.5V14.24ZM14.32 13.38C14.32 13.19 14.31 13.03 14.28 12.9C14.25 12.77 14.21 12.67 14.16 12.59C14.11 12.51 14.05 12.45 13.97 12.42C13.89 12.39 13.81 12.37 13.72 12.37C13.63 12.37 13.54 12.39 13.47 12.42C13.4 12.45 13.33 12.51 13.28 12.59C13.23 12.67 13.19 12.77 13.16 12.9C13.13 13.03 13.12 13.19 13.12 13.38V14.35C13.12 14.54 13.13 14.7 13.16 14.83C13.19 14.96 13.23 15.07 13.28 15.15C13.33 15.23 13.39 15.29 13.47 15.32C13.55 15.35 13.63 15.37 13.72 15.37C13.81 15.37 13.9 15.35 13.97 15.32C14.04 15.29 14.11 15.23 14.16 15.15C14.21 15.07 14.25 14.96 14.27 14.83C14.29 14.7 14.31 14.54 14.31 14.35V13.38H14.32ZM10.89 16H10.04V12.74L9.03003 13.05V12.36L10.8 11.73H10.89V16Z" fill="#252526"/>
</svg>
