<svg width="24" height="24" viewBox="0 0 24 24" fill="none" xmlns="http://www.w3.org/2000/svg">
<path d="M12.0001 22C9.66679 22 7.65445 21.2333 5.96312 19.7C4.27112 18.1667 3.30012 16.2667 3.05012 14C3.01679 13.7333 3.09612 13.5 3.28812 13.3C3.47945 13.1 3.71679 13 4.00012 13C4.26679 13 4.50445 13.0957 4.71312 13.287C4.92112 13.479 5.04179 13.7167 5.07512 14C5.30845 15.7167 6.07512 17.146 7.37512 18.288C8.67512 19.4293 10.2168 20 12.0001 20C13.9501 20 15.6041 19.3207 16.9621 17.962C18.3208 16.604 19.0001 14.95 19.0001 13C19.0001 11.05 18.3208 9.39565 16.9621 8.03699C15.6041 6.67899 13.9501 5.99999 12.0001 5.99999H11.8501L12.7251 6.87499C12.9085 7.05832 13.0001 7.29165 13.0001 7.57499C13.0001 7.85832 12.9085 8.09165 12.7251 8.27499C12.5251 8.47499 12.2835 8.57499 12.0001 8.57499C11.7168 8.57499 11.4835 8.47499 11.3001 8.27499L8.70012 5.69999C8.60012 5.59999 8.52945 5.49165 8.48812 5.37499C8.44612 5.25832 8.42512 5.13332 8.42512 4.99999C8.42512 4.86665 8.44612 4.74165 8.48812 4.62499C8.52945 4.50832 8.60012 4.39999 8.70012 4.29999L11.3001 1.69999C11.4835 1.51665 11.7168 1.42499 12.0001 1.42499C12.2835 1.42499 12.5251 1.51665 12.7251 1.69999C12.9085 1.89999 13.0001 2.14165 13.0001 2.42499C13.0001 2.70832 12.9085 2.94165 12.7251 3.12499L11.8501 3.99999H12.0001C13.2501 3.99999 14.4211 4.23765 15.5131 4.71299C16.6045 5.18765 17.5545 5.82899 18.3631 6.63699C19.1711 7.44565 19.8128 8.39565 20.2881 9.48699C20.7628 10.579 21.0001 11.75 21.0001 13C21.0001 14.25 20.7628 15.4207 20.2881 16.512C19.8128 17.604 19.1711 18.554 18.3631 19.362C17.5545 20.1707 16.6045 20.8127 15.5131 21.288C14.4211 21.7627 13.2501 22 12.0001 22Z" fill="#252526"/>
</svg>
