<svg width="24" height="24" viewBox="0 0 24 24" fill="none" xmlns="http://www.w3.org/2000/svg">
<path fill-rule="evenodd" clip-rule="evenodd" d="M5.96312 19.7C7.65445 21.2333 9.66679 22 12.0001 22C13.2501 22 14.4211 21.7627 15.5131 21.288C16.6045 20.8127 17.5545 20.1707 18.3631 19.362C19.1711 18.554 19.8128 17.604 20.2881 16.512C20.7628 15.4207 21.0001 14.25 21.0001 13C21.0001 11.75 20.7628 10.579 20.2881 9.48699C19.8128 8.39565 19.1711 7.44565 18.3631 6.63699C17.5545 5.82899 16.6045 5.18765 15.5131 4.71299C14.4211 4.23765 13.2501 3.99999 12.0001 3.99999H11.8501L12.7251 3.12499C12.9085 2.94165 13.0001 2.70832 13.0001 2.42499C13.0001 2.14165 12.9085 1.89999 12.7251 1.69999C12.5251 1.51665 12.2835 1.42499 12.0001 1.42499C11.7168 1.42499 11.4835 1.51665 11.3001 1.69999L8.70012 4.29999C8.60012 4.39999 8.52945 4.50832 8.48812 4.62499C8.44612 4.74165 8.42512 4.86665 8.42512 4.99999C8.42512 5.13332 8.44612 5.25832 8.48812 5.37499C8.52945 5.49165 8.60012 5.59999 8.70012 5.69999L11.3001 8.27499C11.4835 8.47499 11.7168 8.57499 12.0001 8.57499C12.2835 8.57499 12.5251 8.47499 12.7251 8.27499C12.9085 8.09165 13.0001 7.85832 13.0001 7.57499C13.0001 7.29165 12.9085 7.05832 12.7251 6.87499L11.8501 5.99999H12.0001C13.9501 5.99999 15.6041 6.67899 16.9621 8.03699C18.3208 9.39565 19.0001 11.05 19.0001 13C19.0001 14.95 18.3208 16.604 16.9621 17.962C15.6041 19.3207 13.9501 20 12.0001 20C10.2168 20 8.67512 19.4293 7.37512 18.288C6.07512 17.146 5.30845 15.7167 5.07512 14C5.04179 13.7167 4.92112 13.479 4.71312 13.287C4.50445 13.0957 4.26679 13 4.00012 13C3.71679 13 3.47945 13.1 3.28812 13.3C3.09612 13.5 3.01679 13.7333 3.05012 14C3.30012 16.2667 4.27112 18.1667 5.96312 19.7ZM10.9401 11.73L10.6901 13.9L11.3601 14.06C11.3674 14.0526 11.3748 14.0447 11.3823 14.0366C11.4054 14.0116 11.4299 13.9851 11.4601 13.97C11.4801 13.96 11.5001 13.9475 11.5201 13.935C11.5401 13.9225 11.5601 13.91 11.5801 13.9C11.6201 13.88 11.6801 13.86 11.7301 13.85C11.7801 13.84 11.8501 13.83 11.9301 13.83C12.0401 13.83 12.1501 13.85 12.2301 13.88C12.3101 13.91 12.3801 13.96 12.4401 14.03C12.5001 14.1 12.5401 14.17 12.5701 14.27C12.6001 14.37 12.6101 14.47 12.6101 14.58C12.6101 14.69 12.6101 14.79 12.5801 14.89C12.5501 14.99 12.5101 15.07 12.4701 15.14C12.4301 15.21 12.3601 15.27 12.2901 15.31C12.2201 15.35 12.1301 15.37 12.0201 15.37C11.8501 15.37 11.7101 15.31 11.6001 15.22C11.4901 15.13 11.4301 14.99 11.4101 14.81H10.5701C10.5701 15.01 10.6201 15.19 10.7001 15.34C10.7801 15.49 10.8801 15.63 11.0201 15.73C11.1601 15.83 11.3101 15.92 11.4801 15.97C11.6501 16.02 11.8301 16.05 12.0101 16.05C12.2601 16.05 12.4701 16 12.6501 15.93C12.8301 15.86 12.9801 15.75 13.1001 15.62C13.2201 15.49 13.3101 15.34 13.3701 15.17C13.4301 15 13.4601 14.82 13.4601 14.63C13.4601 14.41 13.4201 14.21 13.3701 14.03C13.3201 13.85 13.2301 13.7 13.1201 13.58C13.0101 13.46 12.8701 13.37 12.7101 13.3C12.5501 13.23 12.3701 13.2 12.1601 13.2C12.0901 13.2 12.0201 13.21 11.9601 13.22C11.9301 13.225 11.9001 13.2325 11.8701 13.24C11.8401 13.2475 11.8101 13.255 11.7801 13.26C11.7201 13.27 11.6701 13.29 11.6301 13.31C11.6134 13.3183 11.5967 13.3249 11.5807 13.3313C11.5584 13.3401 11.5375 13.3483 11.5201 13.36L11.6301 12.44H13.3301V11.73H10.9401Z" fill="#252526"/>
</svg>
