<svg width="24" height="24" viewBox="0 0 24 24" fill="none" xmlns="http://www.w3.org/2000/svg">
<path d="M12 16C12.2833 16 12.521 15.904 12.713 15.712C12.9043 15.5207 13 15.2833 13 15V11.85L13.9 12.725C14.1 12.9083 14.3333 13.004 14.6 13.012C14.8667 13.0207 15.1 12.925 15.3 12.725C15.5 12.525 15.596 12.2873 15.588 12.012C15.5793 11.7373 15.4833 11.5 15.3 11.3L12.7 8.7C12.6 8.6 12.4917 8.525 12.375 8.475C12.2583 8.425 12.1333 8.4 12 8.4C11.8667 8.41667 11.7417 8.44567 11.625 8.487C11.5083 8.529 11.4 8.6 11.3 8.7L8.7 11.3C8.51667 11.4833 8.425 11.7123 8.425 11.987C8.425 12.2623 8.525 12.5 8.725 12.7C8.925 12.8833 9.15833 12.9793 9.425 12.988C9.69167 12.996 9.925 12.9 10.125 12.7L11 11.825V15C11 15.2833 11.096 15.5207 11.288 15.712C11.4793 15.904 11.7167 16 12 16ZM4 20C3.45 20 2.97933 19.8043 2.588 19.413C2.196 19.021 2 18.55 2 18V6C2 5.45 2.196 4.97933 2.588 4.588C2.97933 4.196 3.45 4 4 4H20C20.55 4 21.021 4.196 21.413 4.588C21.8043 4.97933 22 5.45 22 6V18C22 18.55 21.8043 19.021 21.413 19.413C21.021 19.8043 20.55 20 20 20H4ZM4 18V6V18ZM4 18H20V6H4V18Z" fill="#252526"/>
</svg>
