<svg width="24" height="24" viewBox="0 0 24 24" fill="none" xmlns="http://www.w3.org/2000/svg">
<path d="M6.5 20C6.08333 20 5.72933 19.854 5.438 19.562C5.146 19.2707 5 18.9167 5 18.5V15.5C5 15.0833 5.146 14.7293 5.438 14.438C5.72933 14.146 6.08333 14 6.5 14C6.91667 14 7.27067 14.146 7.562 14.438C7.854 14.7293 8 15.0833 8 15.5V18.5C8 18.9167 7.854 19.2707 7.562 19.562C7.27067 19.854 6.91667 20 6.5 20ZM12.5 20C12.0833 20 11.7293 19.854 11.438 19.562C11.146 19.2707 11 18.9167 11 18.5V10.5C11 10.0833 11.146 9.72933 11.438 9.438C11.7293 9.146 12.0833 9 12.5 9C12.9167 9 13.2707 9.146 13.562 9.438C13.854 9.72933 14 10.0833 14 10.5V18.5C14 18.9167 13.854 19.2707 13.562 19.562C13.2707 19.854 12.9167 20 12.5 20Z" fill="#252526"/>
</svg>
