<svg width="24" height="24" viewBox="0 0 24 24" fill="none" xmlns="http://www.w3.org/2000/svg">
<path fill-rule="evenodd" clip-rule="evenodd" d="M4 20C3.45 20 2.97933 19.8043 2.588 19.413C2.196 19.021 2 18.55 2 18V6C2 5.45 2.196 4.97933 2.588 4.588C2.97933 4.196 3.45 4 4 4H20C20.55 4 21.021 4.196 21.413 4.588C21.8043 4.97933 22 5.45 22 6V18C22 18.55 21.8043 19.021 21.413 19.413C21.021 19.8043 20.55 20 20 20H19H5H4ZM20 18H19H18.9C18.2 16.75 17.2333 15.7707 16 15.062C14.7667 14.354 13.4333 14 12 14C10.5667 14 9.23333 14.354 8 15.062C6.76667 15.7707 5.8 16.75 5.1 18H5H4V6H20V18ZM14.438 16.525C15.2127 16.875 15.8833 17.3667 16.45 18H7.55C8.13333 17.3667 8.80833 16.875 9.575 16.525C10.3417 16.175 11.15 16 12 16C12.85 16 13.6627 16.175 14.438 16.525ZM14.125 12.125C13.5417 12.7083 12.8333 13 12 13C11.1667 13 10.4583 12.7083 9.875 12.125C9.29167 11.5417 9 10.8333 9 10C9 9.16667 9.29167 8.45833 9.875 7.875C10.4583 7.29167 11.1667 7 12 7C12.8333 7 13.5417 7.29167 14.125 7.875C14.7083 8.45833 15 9.16667 15 10C15 10.8333 14.7083 11.5417 14.125 12.125ZM11.288 10.712C11.4793 10.904 11.7167 11 12 11C12.2833 11 12.521 10.904 12.713 10.712C12.9043 10.5207 13 10.2833 13 10C13 9.71667 12.9043 9.479 12.713 9.287C12.521 9.09567 12.2833 9 12 9C11.7167 9 11.4793 9.09567 11.288 9.287C11.096 9.479 11 9.71667 11 10C11 10.2833 11.096 10.5207 11.288 10.712Z" fill="#252526"/>
</svg>
