<svg width="24" height="24" viewBox="0 0 24 24" fill="none" xmlns="http://www.w3.org/2000/svg">
<path d="M20 20C20.55 20 21.0207 19.8043 21.412 19.413C21.804 19.021 22 18.55 22 18V6C22 5.45 21.804 4.97933 21.412 4.588C21.0207 4.196 20.55 4 20 4H4C3.45 4 2.979 4.196 2.587 4.588C2.19567 4.97933 2 5.45 2 6V18C2 18.55 2.19567 19.021 2.587 19.413C2.979 19.8043 3.45 20 4 20H20ZM6.5 8.675H4V6H6.5V8.675ZM6.5 13.325H4V10.675H6.5V13.325ZM20 18H8.5V6H20V18ZM6.5 18H4V15.325H6.5V18Z" fill="#252526"></path>
</svg>
