<svg width="24" height="24" viewBox="0 0 24 24" fill="none" xmlns="http://www.w3.org/2000/svg">
<path d="M8.7 15.3C8.88333 15.4833 9.11667 15.575 9.4 15.575C9.68333 15.575 9.91667 15.4833 10.1 15.3L12 13.4L13.925 15.325C14.1083 15.5083 14.3333 15.6 14.6 15.6C14.8667 15.6 15.1 15.5 15.3 15.3C15.4833 15.1167 15.575 14.8833 15.575 14.6C15.575 14.3167 15.4833 14.0833 15.3 13.9L13.4 12L15.325 10.075C15.5083 9.89167 15.6 9.66667 15.6 9.4C15.6 9.13333 15.5 8.9 15.3 8.7C15.1167 8.51667 14.8833 8.425 14.6 8.425C14.3167 8.425 14.0833 8.51667 13.9 8.7L12 10.6L10.075 8.675C9.89167 8.49167 9.66667 8.4 9.4 8.4C9.13333 8.4 8.9 8.5 8.7 8.7C8.51667 8.88333 8.425 9.11667 8.425 9.4C8.425 9.68333 8.51667 9.91667 8.7 10.1L10.6 12L8.675 13.925C8.49167 14.1083 8.4 14.3333 8.4 14.6C8.4 14.8667 8.5 15.1 8.7 15.3ZM4 20C3.45 20 2.97933 19.8043 2.588 19.413C2.196 19.021 2 18.55 2 18V6C2 5.45 2.196 4.97933 2.588 4.588C2.97933 4.196 3.45 4 4 4H20C20.55 4 21.021 4.196 21.413 4.588C21.8043 4.97933 22 5.45 22 6V18C22 18.55 21.8043 19.021 21.413 19.413C21.021 19.8043 20.55 20 20 20H4ZM4 18V6V18ZM4 18H20V6H4V18Z" fill="#252526"/>
</svg>
