<svg width="24" height="24" viewBox="0 0 24 24" fill="none" xmlns="http://www.w3.org/2000/svg">
<path d="M7 12C7.28333 12 7.521 11.904 7.713 11.712C7.90433 11.5207 8 11.2833 8 11C8 10.7167 7.90433 10.479 7.713 10.287C7.521 10.0957 7.28333 10 7 10C6.71667 10 6.479 10.0957 6.287 10.287C6.09567 10.479 6 10.7167 6 11C6 11.2833 6.09567 11.5207 6.287 11.712C6.479 11.904 6.71667 12 7 12ZM7 16H13C13.2833 16 13.521 15.904 13.713 15.712C13.9043 15.5207 14 15.2833 14 15C14 14.7167 13.9043 14.479 13.713 14.287C13.521 14.0957 13.2833 14 13 14H7C6.71667 14 6.479 14.0957 6.287 14.287C6.09567 14.479 6 14.7167 6 15C6 15.2833 6.09567 15.5207 6.287 15.712C6.479 15.904 6.71667 16 7 16ZM17 16C17.2833 16 17.5207 15.904 17.712 15.712C17.904 15.5207 18 15.2833 18 15C18 14.7167 17.904 14.479 17.712 14.287C17.5207 14.0957 17.2833 14 17 14C16.7167 14 16.4793 14.0957 16.288 14.287C16.096 14.479 16 14.7167 16 15C16 15.2833 16.096 15.5207 16.288 15.712C16.4793 15.904 16.7167 16 17 16ZM11 12H17C17.2833 12 17.5207 11.904 17.712 11.712C17.904 11.5207 18 11.2833 18 11C18 10.7167 17.904 10.479 17.712 10.287C17.5207 10.0957 17.2833 10 17 10H11C10.7167 10 10.4793 10.0957 10.288 10.287C10.096 10.479 10 10.7167 10 11C10 11.2833 10.096 11.5207 10.288 11.712C10.4793 11.904 10.7167 12 11 12ZM4 20C3.45 20 2.97933 19.8043 2.588 19.413C2.196 19.021 2 18.55 2 18V6C2 5.45 2.196 4.97933 2.588 4.588C2.97933 4.196 3.45 4 4 4H20C20.55 4 21.021 4.196 21.413 4.588C21.8043 4.97933 22 5.45 22 6V18C22 18.55 21.8043 19.021 21.413 19.413C21.021 19.8043 20.55 20 20 20H4ZM4 18V6V18ZM4 18H20V6H4V18Z" fill="#252526"/>
</svg>
