<svg width="24" height="24" viewBox="0 0 24 24" fill="none" xmlns="http://www.w3.org/2000/svg">
<path d="M10 21C9.45 21 8.97933 20.8043 8.588 20.413C8.196 20.021 8 19.55 8 19V8.825C8 8.55833 8.05433 8.304 8.163 8.062C8.271 7.82066 8.41667 7.60833 8.6 7.425L14.025 2.025C14.275 1.79166 14.571 1.65 14.913 1.6C15.2543 1.55 15.5833 1.60833 15.9 1.775C16.2167 1.94166 16.4457 2.17499 16.587 2.47499C16.729 2.77499 16.7583 3.08333 16.675 3.4L15.55 8H21C21.5333 8 22 8.2 22.4 8.6C22.8 9 23 9.46666 23 10V12C23 12.1167 22.9873 12.2417 22.962 12.375C22.9373 12.5083 22.9 12.6333 22.85 12.75L19.85 19.8C19.7 20.1333 19.45 20.4167 19.1 20.65C18.75 20.8833 18.3833 21 18 21H10ZM4 21C3.45 21 2.97933 20.8043 2.588 20.413C2.196 20.021 2 19.55 2 19V10C2 9.45 2.196 8.979 2.588 8.587C2.97933 8.19566 3.45 8 4 8C4.55 8 5.02067 8.19566 5.412 8.587C5.804 8.979 6 9.45 6 10V19C6 19.55 5.804 20.021 5.412 20.413C5.02067 20.8043 4.55 21 4 21Z" fill="#252526"/>
</svg>
