<svg width="24" height="24" viewBox="0 0 24 24" fill="none" xmlns="http://www.w3.org/2000/svg">
<path d="M7 21V8.00001L13 2.05001C13.25 1.80001 13.5457 1.65401 13.887 1.61201C14.229 1.57067 14.5583 1.63334 14.875 1.80001C15.1917 1.96667 15.425 2.20001 15.575 2.50001C15.725 2.80001 15.7583 3.10834 15.675 3.42501L14.55 8.00001H21C21.5333 8.00001 22 8.20001 22.4 8.60001C22.8 9.00001 23 9.46667 23 10V12C23 12.1167 22.9833 12.2417 22.95 12.375C22.9167 12.5083 22.8833 12.6333 22.85 12.75L19.85 19.8C19.7 20.1333 19.45 20.4167 19.1 20.65C18.75 20.8833 18.3833 21 18 21H7ZM9 8.85001V19H18L21 12V10H12L13.35 4.50001L9 8.85001ZM4 21C3.45 21 2.97933 20.8043 2.588 20.413C2.196 20.021 2 19.55 2 19V10C2 9.45001 2.196 8.97901 2.588 8.58701C2.97933 8.19567 3.45 8.00001 4 8.00001H7V10H4V19H7V21H4ZM9 19V8.85001V19Z" fill="#252526"/>
</svg>
