<svg width="24" height="24" viewBox="0 0 24 24" fill="none" xmlns="http://www.w3.org/2000/svg">
<path d="M20.0315 10.5549C18.3625 10.5549 16.7386 10.0132 15.4881 9.09668L15.4782 15.3285C15.4772 16.4832 15.124 17.6102 14.4658 18.559C13.8077 19.5077 12.8758 20.2333 11.7946 20.6387C10.7133 21.0441 9.53418 21.1101 8.41446 20.8279C7.29474 20.5457 6.28771 19.9288 5.52773 19.0594C4.76776 18.19 4.29099 17.1095 4.16106 15.9622C4.03112 14.8148 4.2542 13.655 4.80052 12.6377C5.34684 11.6204 6.19042 10.7939 7.21868 10.2685C8.24695 9.74306 9.411 9.54373 10.5555 9.69708V12.7574C10.0156 12.5979 9.43922 12.6125 8.90807 12.799C8.37691 12.9855 7.91796 13.3345 7.5963 13.7965C7.27464 14.2585 7.10661 14.81 7.11604 15.3729C7.12546 15.9358 7.31187 16.4814 7.64882 16.9324C7.98577 17.3833 8.45615 17.7168 8.99325 17.8854C9.53036 18.054 10.1069 18.0492 10.6412 17.8717C11.1754 17.6942 11.6402 17.3531 11.9696 16.8966C12.2991 16.4401 12.4764 15.8914 12.4765 15.3285V3H15.6246C15.6246 3.5787 15.7386 4.15173 15.9601 4.68637C16.1815 5.22102 16.5061 5.7068 16.9153 6.116C17.3245 6.5252 17.8103 6.84979 18.345 7.07124C18.8796 7.29269 19.4527 7.40667 20.0314 7.40666L20.0315 10.5549Z" fill="#252526"/>
</svg>
