<svg width="24" height="24" viewBox="0 0 24 24" fill="none" xmlns="http://www.w3.org/2000/svg">
<path d="M19.8991 8.13631C19.9112 8.31131 19.9112 8.48631 19.9112 8.66292C19.9112 14.0444 15.8144 20.2508 8.32331 20.2508V20.2476C6.11041 20.2508 3.94347 19.617 2.08057 18.4218C2.40234 18.4605 2.72573 18.4799 3.04992 18.4807C4.88379 18.4823 6.66524 17.867 8.10799 16.7339C6.36524 16.7008 4.83702 15.5645 4.30315 13.9057C4.91363 14.0234 5.54266 13.9992 6.14186 13.8355C4.24186 13.4516 2.87492 11.7823 2.87492 9.84357C2.87492 9.82583 2.87492 9.80889 2.87492 9.79196C3.44105 10.1073 4.07492 10.2823 4.72331 10.3016C2.93379 9.10567 2.38218 6.72502 3.46282 4.86373C5.53057 7.40809 8.58137 8.95486 11.8564 9.11857C11.5281 7.70405 11.9765 6.2218 13.0346 5.22744C14.6749 3.68551 17.2548 3.76454 18.7967 5.40405C19.7088 5.22422 20.583 4.88954 21.383 4.41534C21.079 5.35809 20.4427 6.15889 19.5927 6.66776C20.3999 6.5726 21.1886 6.35647 21.9314 6.02663C21.3846 6.84599 20.6959 7.5597 19.8991 8.13631Z" fill="#252526"/>
</svg>
