<svg width="24" height="24" viewBox="0 0 24 24" fill="none" xmlns="http://www.w3.org/2000/svg">
<path d="M13.05 13.5L17.2 10.85C17.5167 10.65 17.675 10.3667 17.675 10C17.675 9.63333 17.5167 9.35 17.2 9.15L13.05 6.5C12.7167 6.26667 12.375 6.25 12.025 6.45C11.675 6.65 11.5 6.94167 11.5 7.325V12.675C11.5 13.0583 11.675 13.35 12.025 13.55C12.375 13.75 12.7167 13.7333 13.05 13.5ZM8 18C7.45 18 6.97933 17.8043 6.588 17.413C6.196 17.021 6 16.55 6 16V4C6 3.45 6.196 2.979 6.588 2.587C6.97933 2.19567 7.45 2 8 2H20C20.55 2 21.021 2.19567 21.413 2.587C21.8043 2.979 22 3.45 22 4V16C22 16.55 21.8043 17.021 21.413 17.413C21.021 17.8043 20.55 18 20 18H8ZM4 22C3.45 22 2.97933 21.8043 2.588 21.413C2.196 21.021 2 20.55 2 20V7C2 6.71667 2.096 6.479 2.288 6.287C2.47933 6.09567 2.71667 6 3 6C3.28333 6 3.521 6.09567 3.713 6.287C3.90433 6.479 4 6.71667 4 7V20H17C17.2833 20 17.5207 20.096 17.712 20.288C17.904 20.4793 18 20.7167 18 21C18 21.2833 17.904 21.5207 17.712 21.712C17.5207 21.904 17.2833 22 17 22H4Z" fill="#252526"/>
</svg>
