<svg width="24" height="24" viewBox="0 0 24 24" fill="none" xmlns="http://www.w3.org/2000/svg">
<path d="M21.15 16.65L18 13.5V15.175L16 13.175V5.99998H8.82505L6.82505 3.99998H16C16.55 3.99998 17.021 4.19598 17.413 4.58798C17.8044 4.97931 18 5.44998 18 5.99998V10.5L21.15 7.34998C21.3167 7.18331 21.5 7.14164 21.7001 7.22498C21.9001 7.30831 22 7.46664 22 7.69998V16.3C22 16.5333 21.9001 16.6916 21.7001 16.775C21.5 16.8583 21.3167 16.8166 21.15 16.65ZM19.85 22.65L1.32505 4.12498C1.14172 3.94164 1.05005 3.71664 1.05005 3.44998C1.05005 3.18331 1.15005 2.94998 1.35005 2.74998C1.53338 2.56664 1.76672 2.47498 2.05005 2.47498C2.33338 2.47498 2.56672 2.56664 2.75005 2.74998L21.275 21.275C21.4584 21.4583 21.55 21.6833 21.55 21.95C21.55 22.2166 21.4501 22.45 21.25 22.65C21.0667 22.8333 20.8334 22.925 20.55 22.925C20.2667 22.925 20.0334 22.8333 19.85 22.65ZM4.00005 3.99998L6.00005 5.99998H4.00005V18H16V16L18 18C18 18.55 17.8044 19.021 17.413 19.413C17.021 19.8043 16.55 20 16 20H4.00005C3.45005 20 2.97938 19.8043 2.58805 19.413C2.19605 19.021 2.00005 18.55 2.00005 18V5.99998C2.00005 5.44998 2.19605 4.97931 2.58805 4.58798C2.97938 4.19598 3.45005 3.99998 4.00005 3.99998Z" fill="#252526"/>
</svg>
