<svg width="24" height="24" viewBox="0 0 24 24" fill="none" xmlns="http://www.w3.org/2000/svg">
<path d="M16.1 13.3L14.65 11.85C14.8 11.0667 14.575 10.3333 13.975 9.65001C13.375 8.96667 12.6 8.70001 11.65 8.85001L10.2 7.40001C10.4834 7.26667 10.7707 7.16667 11.062 7.10001C11.354 7.03334 11.6667 7.00001 12 7.00001C13.25 7.00001 14.3127 7.43734 15.188 8.31201C16.0627 9.18734 16.5 10.25 16.5 11.5C16.5 11.8333 16.4667 12.146 16.4 12.438C16.3334 12.7293 16.2334 13.0167 16.1 13.3ZM19.3 16.45L17.85 15.05C18.4834 14.5667 19.046 14.0373 19.538 13.462C20.0294 12.8873 20.45 12.2333 20.8 11.5C19.9667 9.81667 18.7707 8.47901 17.212 7.48701C15.654 6.49567 13.9167 6.00001 12 6.00001C11.5167 6.00001 11.0417 6.03334 10.575 6.10001C10.1084 6.16667 9.65005 6.26667 9.20005 6.40001L7.65005 4.85001C8.33338 4.56667 9.03338 4.35401 9.75005 4.21201C10.4667 4.07067 11.2167 4.00001 12 4.00001C14.3834 4.00001 16.525 4.62901 18.425 5.88701C20.325 7.14567 21.75 8.78334 22.7001 10.8C22.75 10.8833 22.7834 10.9873 22.8 11.112C22.8167 11.2373 22.8251 11.3667 22.8251 11.5C22.8251 11.6333 22.8127 11.7623 22.788 11.887C22.7627 12.0123 22.7334 12.1167 22.7001 12.2C22.3167 13.05 21.8377 13.8333 21.2631 14.55C20.6877 15.2667 20.0334 15.9 19.3 16.45ZM19.1 21.9L15.6 18.45C15.0167 18.6333 14.4294 18.771 13.838 18.863C13.246 18.9543 12.6334 19 12 19C9.61672 19 7.47505 18.371 5.57505 17.113C3.67505 15.8543 2.25005 14.2167 1.30005 12.2C1.25005 12.1167 1.21672 12.0123 1.20005 11.887C1.18338 11.7623 1.17505 11.6333 1.17505 11.5C1.17505 11.3667 1.18338 11.2417 1.20005 11.125C1.21672 11.0083 1.25005 10.9083 1.30005 10.825C1.65005 10.075 2.06672 9.38334 2.55005 8.75001C3.03338 8.11667 3.56672 7.53334 4.15005 7.00001L2.07505 4.90001C1.89172 4.71667 1.80005 4.48734 1.80005 4.21201C1.80005 3.93734 1.90005 3.70001 2.10005 3.50001C2.28338 3.31667 2.51672 3.22501 2.80005 3.22501C3.08338 3.22501 3.31672 3.31667 3.50005 3.50001L20.5 20.5C20.6834 20.6833 20.7794 20.9127 20.788 21.188C20.796 21.4627 20.7001 21.7 20.5 21.9C20.3167 22.0833 20.0834 22.175 19.8 22.175C19.5167 22.175 19.2834 22.0833 19.1 21.9ZM5.55005 8.40001C5.06672 8.83334 4.62505 9.30834 4.22505 9.82501C3.82505 10.3417 3.48338 10.9 3.20005 11.5C4.03338 13.1833 5.22905 14.5207 6.78705 15.512C8.34572 16.504 10.0834 17 12 17C12.3334 17 12.6584 16.9793 12.975 16.938C13.2917 16.896 13.6167 16.85 13.95 16.8L13.05 15.85C12.8667 15.9 12.6917 15.9373 12.525 15.962C12.3584 15.9873 12.1834 16 12 16C10.75 16 9.68738 15.5627 8.81205 14.688C7.93738 13.8127 7.50005 12.75 7.50005 11.5C7.50005 11.3167 7.51238 11.1417 7.53705 10.975C7.56238 10.8083 7.60005 10.6333 7.65005 10.45L5.55005 8.40001Z" fill="#252526"/>
</svg>
