<svg width="24" height="24" viewBox="0 0 24 24" fill="none" xmlns="http://www.w3.org/2000/svg">
<path d="M19.1 21.9L16.775 19.575C16.5416 19.7083 16.3083 19.8373 16.075 19.962C15.8416 20.0873 15.6 20.2 15.35 20.3C15.0166 20.4333 14.7083 20.3917 14.425 20.175C14.1416 19.9583 14 19.6583 14 19.275C14 19.0917 14.0543 18.9293 14.163 18.788C14.271 18.646 14.4083 18.5417 14.575 18.475C14.7083 18.425 14.8376 18.3707 14.963 18.312C15.0876 18.254 15.2083 18.1917 15.325 18.125L12 14.8V17.575C12 18.025 11.7956 18.3373 11.387 18.512C10.979 18.6873 10.6166 18.6167 10.3 18.3L6.99995 15H3.99995C3.71662 15 3.47928 14.904 3.28795 14.712C3.09595 14.5207 2.99995 14.2833 2.99995 14V10C2.99995 9.71667 3.09595 9.47901 3.28795 9.28701C3.47928 9.09567 3.71662 9.00001 3.99995 9.00001H6.19995L2.09995 4.90001C1.91662 4.71667 1.82495 4.48334 1.82495 4.20001C1.82495 3.91667 1.91662 3.68334 2.09995 3.50001C2.28328 3.31667 2.51662 3.22501 2.79995 3.22501C3.08328 3.22501 3.31662 3.31667 3.49995 3.50001L20.5 20.5C20.6833 20.6833 20.775 20.9167 20.775 21.2C20.775 21.4833 20.6833 21.7167 20.5 21.9C20.3166 22.0833 20.0833 22.175 19.7999 22.175C19.5166 22.175 19.2833 22.0833 19.1 21.9ZM15.35 3.65001C17.05 4.33334 18.4166 5.42501 19.45 6.92501C20.4833 8.42501 21 10.1083 21 11.975C21 12.8583 20.8793 13.7083 20.638 14.525C20.396 15.3417 20.05 16.1 19.6 16.8L18.15 15.35C18.4333 14.8333 18.646 14.2917 18.788 13.725C18.9293 13.1583 19 12.575 19 11.975C19 10.5083 18.596 9.19167 17.788 8.02501C16.9793 6.85834 15.9083 6.00834 14.575 5.47501C14.3916 5.40834 14.25 5.30001 14.15 5.15001C14.05 5.00001 14 4.83334 14 4.65001C14 4.28334 14.1416 3.99167 14.425 3.77501C14.7083 3.55834 15.0166 3.51667 15.35 3.65001ZM16.25 13.45L14 11.2V7.95001C14.7833 8.31667 15.396 8.86667 15.838 9.60001C16.2793 10.3333 16.5 11.1333 16.5 12C16.5 12.25 16.4793 12.496 16.438 12.738C16.396 12.9793 16.3333 13.2167 16.25 13.45ZM12 9.20001L9.39995 6.60001L10.3 5.70001C10.6166 5.38334 10.979 5.31234 11.387 5.48701C11.7956 5.66234 12 5.97501 12 6.42501V9.20001ZM9.99995 15.15V12.8L8.19995 11H4.99995V13H7.84995L9.99995 15.15Z" fill="#252526"/>
</svg>
