<svg width="24" height="24" viewBox="0 0 24 24" fill="none" xmlns="http://www.w3.org/2000/svg">
<path d="M6 15C5.71667 15 5.479 14.904 5.287 14.712C5.09567 14.5207 5 14.2833 5 14V10C5 9.71667 5.09567 9.479 5.287 9.287C5.479 9.09567 5.71667 9 6 9H9L12.3 5.7C12.6167 5.38333 12.979 5.31233 13.387 5.487C13.7957 5.66233 14 5.975 14 6.425V17.575C14 18.025 13.7957 18.3373 13.387 18.512C12.979 18.6873 12.6167 18.6167 12.3 18.3L9 15H6ZM16 16V7.95C16.75 8.3 17.354 8.84167 17.812 9.575C18.2707 10.3083 18.5 11.1167 18.5 12C18.5 12.8833 18.2707 13.6833 17.812 14.4C17.354 15.1167 16.75 15.65 16 16Z" fill="#252526"/>
</svg>
