<svg width="24" height="24" viewBox="0 0 24 24" fill="none" xmlns="http://www.w3.org/2000/svg">
<path d="M15.35 20.3C15.0167 20.4333 14.7083 20.3917 14.425 20.175C14.1417 19.9583 14 19.6583 14 19.275C14 19.0917 14.0543 18.9293 14.163 18.788C14.271 18.646 14.4083 18.5417 14.575 18.475C15.9083 17.9417 16.9793 17.0917 17.788 15.925C18.596 14.7583 19 13.4417 19 11.975C19 10.5083 18.596 9.19168 17.788 8.02501C16.9793 6.85835 15.9083 6.00835 14.575 5.47501C14.3917 5.40835 14.25 5.30001 14.15 5.15001C14.05 5.00001 14 4.83335 14 4.65001C14 4.28335 14.1417 3.99168 14.425 3.77501C14.7083 3.55835 15.0167 3.51668 15.35 3.65001C17.05 4.33335 18.4167 5.42501 19.45 6.92501C20.4833 8.42501 21 10.1083 21 11.975C21 13.8417 20.4833 15.525 19.45 17.025C18.4167 18.525 17.05 19.6167 15.35 20.3ZM4 15C3.71667 15 3.47933 14.904 3.288 14.712C3.096 14.5207 3 14.2833 3 14V10C3 9.71668 3.096 9.47901 3.288 9.28701C3.47933 9.09568 3.71667 9.00001 4 9.00001H7L10.3 5.70001C10.6167 5.38335 10.979 5.31235 11.387 5.48701C11.7957 5.66235 12 5.97501 12 6.42501V17.575C12 18.025 11.7957 18.3373 11.387 18.512C10.979 18.6873 10.6167 18.6167 10.3 18.3L7 15H4ZM14 16V7.95001C14.75 8.30001 15.354 8.84168 15.812 9.57501C16.2707 10.3083 16.5 11.1167 16.5 12C16.5 12.8833 16.2707 13.6833 15.812 14.4C15.354 15.1167 14.75 15.65 14 16ZM10 8.85001L7.85 11H5V13H7.85L10 15.15V8.85001Z" fill="#252526"/>
</svg>
