<svg width="24" height="24" viewBox="0 0 24 24" fill="none" xmlns="http://www.w3.org/2000/svg">
<path d="M21.5818 7.2C21.3523 6.33409 20.6739 5.65227 19.8136 5.42045C18.2545 5 12 5 12 5C12 5 5.74545 5 4.18636 5.42045C3.32614 5.65227 2.64773 6.33409 2.41818 7.2C2 8.77045 2 12.0455 2 12.0455C2 12.0455 2 15.3205 2.41818 16.8909C2.64773 17.7568 3.32614 18.4386 4.18636 18.6705C5.74545 19.0909 12 19.0909 12 19.0909C12 19.0909 18.2545 19.0909 19.8136 18.6705C20.6739 18.4386 21.3523 17.7568 21.5818 16.8909C22 15.3205 22 12.0455 22 12.0455C22 12.0455 22 8.77045 21.5818 7.2ZM9.95455 15.0193V9.07159L15.1818 12.0455L9.95455 15.0193Z" fill="#252526"/>
</svg>
